<?xml version="1.0" encoding="UTF-8" standalone="no"?>
<svg xmlns="http://www.w3.org/2000/svg" xmlns:xlink="http://www.w3.org/1999/xlink" height="100%" viewBox="0 0 3750 710" width="100%">
  <marker fill="rgb(255,60,60)" id="triangle" markerHeight="4" markerWidth="4" orient="auto" refX="7" refY="5" viewBox="0 0 10 10">
    <path d="M 0 0 L 10 5 L 0 10 z"/>
  </marker>
  <rect fill="aliceblue" height="100" id="condottofumiexit" stroke="skyblue" stroke-width="3" width="150" x="300" y="180"/>
  <text dominant-baseline="middle" font-weight="bold" text-anchor="middle" x="375" y="230">CONDOTTOFUMIEXIT</text>
  <rect fill="aliceblue" height="100" id="ms441sstart" stroke="skyblue" stroke-width="3" width="150" x="1500" y="180"/>
  <text dominant-baseline="middle" font-weight="bold" text-anchor="middle" x="1575" y="230">MS441SSTART</text>
  <rect fill="aliceblue" height="100" id="mc-492a" stroke="skyblue" stroke-width="3" width="150" x="2500" y="180"/>
  <text dominant-baseline="middle" font-weight="bold" text-anchor="middle" x="2575" y="230">MC-492A</text>
  <rect fill="aliceblue" height="100" id="ul74" stroke="skyblue" stroke-width="3" width="150" x="3500" y="180"/>
  <text dominant-baseline="middle" font-weight="bold" text-anchor="middle" x="3575" y="230">UL74</text>
  <rect fill="aliceblue" height="100" id="ul72" stroke="skyblue" stroke-width="3" width="150" x="700" y="180"/>
  <text dominant-baseline="middle" font-weight="bold" text-anchor="middle" x="775" y="230">UL72</text>
  <rect fill="aliceblue" height="100" id="ul73" stroke="skyblue" stroke-width="3" width="150" x="1300" y="180"/>
  <text dominant-baseline="middle" font-weight="bold" text-anchor="middle" x="1375" y="230">UL73</text>
  <rect fill="aliceblue" height="100" id="mc-492b" stroke="skyblue" stroke-width="3" width="150" x="1377" y="550"/>
  <text dominant-baseline="middle" font-weight="bold" text-anchor="middle" x="1452" y="600">MC-492B</text>
  <rect fill="aliceblue" height="100" id="ul70" stroke="skyblue" stroke-width="3" width="150" x="2900" y="180"/>
  <text dominant-baseline="middle" font-weight="bold" text-anchor="middle" x="2975" y="230">UL70</text>
  <rect fill="aliceblue" height="100" id="ul71" stroke="skyblue" stroke-width="3" width="150" x="577" y="550"/>
  <text dominant-baseline="middle" font-weight="bold" text-anchor="middle" x="652" y="600">UL71</text>
  <rect fill="aliceblue" height="100" id="r440" stroke="skyblue" stroke-width="3" width="150" x="2300" y="180"/>
  <text dominant-baseline="middle" font-weight="bold" text-anchor="middle" x="2375" y="230">R440</text>
  <rect fill="aliceblue" height="100" id="ariaambientestart" stroke="skyblue" stroke-width="3" width="150" x="977" y="550"/>
  <text dominant-baseline="middle" font-weight="bold" text-anchor="middle" x="1052" y="600">ARIAAMBIENTESTART</text>
  <rect fill="aliceblue" height="100" id="K2CO3.txtexit2" stroke="skyblue" stroke-width="3" width="150" x="2377" y="550"/>
  <text dominant-baseline="middle" font-weight="bold" text-anchor="middle" x="2452" y="600">K2CO3.TXTEXIT2</text>
  <rect fill="aliceblue" height="100" id="k440" stroke="skyblue" stroke-width="3" width="150" x="900" y="180"/>
  <text dominant-baseline="middle" font-weight="bold" text-anchor="middle" x="975" y="230">K440</text>
  <rect fill="aliceblue" height="100" id="md440" stroke="skyblue" stroke-width="3" width="150" x="1700" y="180"/>
  <text dominant-baseline="middle" font-weight="bold" text-anchor="middle" x="1775" y="230">MD440</text>
  <rect fill="aliceblue" height="100" id="k441" stroke="skyblue" stroke-width="3" width="150" x="3300" y="180"/>
  <text dominant-baseline="middle" font-weight="bold" text-anchor="middle" x="3375" y="230">K441</text>
  <rect fill="aliceblue" height="100" id="generatoregasdiprocessostart" stroke="skyblue" stroke-width="3" width="150" x="3377" y="550"/>
  <text dominant-baseline="middle" font-weight="bold" text-anchor="middle" x="3452" y="600">GENERATOREGASDIPROCESSOSTART</text>
  <rect fill="aliceblue" height="100" id="mc442start" stroke="skyblue" stroke-width="3" width="150" x="1977" y="550"/>
  <text dominant-baseline="middle" font-weight="bold" text-anchor="middle" x="2052" y="600">MC442START</text>
  <rect fill="aliceblue" height="100" id="p442a" stroke="skyblue" stroke-width="3" width="150" x="2100" y="180"/>
  <text dominant-baseline="middle" font-weight="bold" text-anchor="middle" x="2175" y="230">P442A</text>
  <rect fill="aliceblue" height="100" id="ritornos410exit" stroke="skyblue" stroke-width="3" width="150" x="2700" y="180"/>
  <text dominant-baseline="middle" font-weight="bold" text-anchor="middle" x="2775" y="230">RITORNOS410EXIT</text>
  <rect fill="aliceblue" height="100" id="me-440" stroke="skyblue" stroke-width="3" width="150" x="177" y="550"/>
  <text dominant-baseline="middle" font-weight="bold" text-anchor="middle" x="252" y="600">ME-440</text>
  <rect fill="aliceblue" height="100" id="p440b" stroke="skyblue" stroke-width="3" width="150" x="1100" y="180"/>
  <text dominant-baseline="middle" font-weight="bold" text-anchor="middle" x="1175" y="230">P440B</text>
  <rect fill="aliceblue" height="100" id="p442b" stroke="skyblue" stroke-width="3" width="150" x="3100" y="180"/>
  <text dominant-baseline="middle" font-weight="bold" text-anchor="middle" x="3175" y="230">P442B</text>
  <rect fill="aliceblue" height="100" id="p440a" stroke="skyblue" stroke-width="3" width="150" x="100" y="180"/>
  <text dominant-baseline="middle" font-weight="bold" text-anchor="middle" x="175" y="230">P440A</text>
  <rect fill="aliceblue" height="100" id="K2CO3.txtkohstart" stroke="skyblue" stroke-width="3" width="150" x="500" y="180"/>
  <text dominant-baseline="middle" font-weight="bold" text-anchor="middle" x="575" y="230">K2CO3.TXTKOHSTART</text>
  <rect fill="aliceblue" height="100" id="mc-445start" stroke="skyblue" stroke-width="3" width="150" x="777" y="550"/>
  <text dominant-baseline="middle" font-weight="bold" text-anchor="middle" x="852" y="600">MC-445START</text>
  <rect fill="aliceblue" height="100" id="lv-201" stroke="skyblue" stroke-width="3" width="150" x="1777" y="550"/>
  <text dominant-baseline="middle" font-weight="bold" text-anchor="middle" x="1852" y="600">LV-201</text>
  <rect fill="aliceblue" height="100" id="ams441" stroke="skyblue" stroke-width="3" width="150" x="1577" y="550"/>
  <text dominant-baseline="middle" font-weight="bold" text-anchor="middle" x="1652" y="600">AMS441</text>
  <rect fill="aliceblue" height="100" id="exit" stroke="skyblue" stroke-width="3" width="150" x="2177" y="550"/>
  <text dominant-baseline="middle" font-weight="bold" text-anchor="middle" x="2252" y="600">EXIT</text>
  <rect fill="aliceblue" height="100" id="mc-440" stroke="skyblue" stroke-width="3" width="150" x="2977" y="550"/>
  <text dominant-baseline="middle" font-weight="bold" text-anchor="middle" x="3052" y="600">MC-440</text>
  <rect fill="aliceblue" height="100" id="polveristart" stroke="skyblue" stroke-width="3" width="150" x="1177" y="550"/>
  <text dominant-baseline="middle" font-weight="bold" text-anchor="middle" x="1252" y="600">POLVERISTART</text>
  <rect fill="aliceblue" height="100" id="fv106" stroke="skyblue" stroke-width="3" width="150" x="1900" y="180"/>
  <text dominant-baseline="middle" font-weight="bold" text-anchor="middle" x="1975" y="230">FV106</text>
  <rect fill="aliceblue" height="100" id="mc-443" stroke="skyblue" stroke-width="3" width="150" x="2577" y="550"/>
  <text dominant-baseline="middle" font-weight="bold" text-anchor="middle" x="2652" y="600">MC-443</text>
  <rect fill="aliceblue" height="100" id="fv205" stroke="skyblue" stroke-width="3" width="150" x="2777" y="550"/>
  <text dominant-baseline="middle" font-weight="bold" text-anchor="middle" x="2852" y="600">FV205</text>
  <rect fill="aliceblue" height="100" id="mc-446start" stroke="skyblue" stroke-width="3" width="150" x="377" y="550"/>
  <text dominant-baseline="middle" font-weight="bold" text-anchor="middle" x="452" y="600">MC-446START</text>
  <rect fill="aliceblue" height="100" id="ai9start" stroke="skyblue" stroke-width="3" width="150" x="3177" y="550"/>
  <text dominant-baseline="middle" font-weight="bold" text-anchor="middle" x="3252" y="600">AI9START</text>
  <line class="Flusso_649" stroke="rgb(0,0,0)" stroke-width="3" x1="1703" x2="3507" y1="160" y2="160"/>
  <g display="none" id="Flusso_649">
    <rect fill="white" height="30" stroke="steelblue" stroke-width="2" width="80" x="2565" y="145"/>
    <text dominant-baseline="middle" font-size="10" font-weight="bold" text-anchor="middle" x="2605" y="160">FLUSSO_649</text>
  </g>
  <line class="Flusso_649" stroke="rgb(0,0,0)" stroke-width="3" x1="1705" x2="1705" y1="158" y2="180"/>
  <line class="Flusso_649" marker-end="url(#triangle)" stroke="rgb(0,0,0)" stroke-width="3" x1="3505" x2="3505" y1="158" y2="180"/>
  <line class="Flusso_656" stroke="rgb(0,0,0)" stroke-width="3" x1="1103" x2="2707" y1="150" y2="150"/>
  <g display="none" id="Flusso_656">
    <rect fill="white" height="30" stroke="steelblue" stroke-width="2" width="80" x="1865" y="135"/>
    <text dominant-baseline="middle" font-size="10" font-weight="bold" text-anchor="middle" x="1905" y="150">FLUSSO_656</text>
  </g>
  <line class="Flusso_656" stroke="rgb(0,0,0)" stroke-width="3" x1="1105" x2="1105" y1="148" y2="180"/>
  <line class="Flusso_656" marker-end="url(#triangle)" stroke="rgb(0,0,0)" stroke-width="3" x1="2705" x2="2705" y1="148" y2="180"/>
  <line class="Flusso_631" stroke="rgb(0,0,0)" stroke-width="3" x1="703" x2="1121" y1="140" y2="140"/>
  <g display="none" id="Flusso_631">
    <rect fill="white" height="30" stroke="steelblue" stroke-width="2" width="80" x="872" y="125"/>
    <text dominant-baseline="middle" font-size="10" font-weight="bold" text-anchor="middle" x="912" y="140">FLUSSO_631</text>
  </g>
  <line class="Flusso_631" stroke="rgb(0,0,0)" stroke-width="3" x1="1119" x2="1119" y1="138" y2="180"/>
  <line class="Flusso_631" marker-end="url(#triangle)" stroke="rgb(0,0,0)" stroke-width="3" x1="705" x2="705" y1="138" y2="180"/>
  <line class="Flusso_637" stroke="rgb(0,0,0)" stroke-width="3" x1="580" x2="1107" y1="310" y2="310"/>
  <g display="none" id="Flusso_637">
    <rect fill="white" height="30" stroke="steelblue" stroke-width="2" width="80" x="803" y="295"/>
    <text dominant-baseline="middle" font-size="10" font-weight="bold" text-anchor="middle" x="843" y="310">FLUSSO_637</text>
  </g>
  <line class="Flusso_637" stroke="rgb(0,0,0)" stroke-width="3" x1="1105" x2="1105" y1="280" y2="312"/>
  <line class="Flusso_637" marker-end="url(#triangle)" stroke="rgb(0,0,0)" stroke-width="3" x1="582" x2="582" y1="308" y2="550"/>
  <line class="Flusso_644" stroke="rgb(0,0,0)" stroke-width="3" x1="2180" x2="3307" y1="320" y2="320"/>
  <g display="none" id="Flusso_644">
    <rect fill="white" height="30" stroke="steelblue" stroke-width="2" width="80" x="2703" y="305"/>
    <text dominant-baseline="middle" font-size="10" font-weight="bold" text-anchor="middle" x="2743" y="320">FLUSSO_644</text>
  </g>
  <line class="Flusso_644" stroke="rgb(0,0,0)" stroke-width="3" x1="3305" x2="3305" y1="280" y2="322"/>
  <line class="Flusso_644" marker-end="url(#triangle)" stroke="rgb(0,0,0)" stroke-width="3" x1="2182" x2="2182" y1="318" y2="550"/>
  <line class="Flusso_655" stroke="rgb(0,0,0)" stroke-width="3" x1="103" x2="2721" y1="130" y2="130"/>
  <g display="none" id="Flusso_655">
    <rect fill="white" height="30" stroke="steelblue" stroke-width="2" width="80" x="1372" y="115"/>
    <text dominant-baseline="middle" font-size="10" font-weight="bold" text-anchor="middle" x="1412" y="130">FLUSSO_655</text>
  </g>
  <line class="Flusso_655" stroke="rgb(0,0,0)" stroke-width="3" x1="105" x2="105" y1="128" y2="180"/>
  <line class="Flusso_655" marker-end="url(#triangle)" stroke="rgb(0,0,0)" stroke-width="3" x1="2719" x2="2719" y1="128" y2="180"/>
  <line class="Flusso_665" stroke="rgb(0,0,0)" stroke-width="3" x1="503" x2="1784" y1="330" y2="330"/>
  <g display="none" id="Flusso_665">
    <rect fill="white" height="30" stroke="steelblue" stroke-width="2" width="80" x="1103" y="315"/>
    <text dominant-baseline="middle" font-size="10" font-weight="bold" text-anchor="middle" x="1143" y="330">FLUSSO_665</text>
  </g>
  <line class="Flusso_665" stroke="rgb(0,0,0)" stroke-width="3" x1="505" x2="505" y1="280" y2="332"/>
  <line class="Flusso_665" marker-end="url(#triangle)" stroke="rgb(0,0,0)" stroke-width="3" x1="1782" x2="1782" y1="328" y2="550"/>
  <line class="Flusso_641" stroke="rgb(0,0,0)" stroke-width="3" x1="1180" x2="2307" y1="340" y2="340"/>
  <g display="none" id="Flusso_641">
    <rect fill="white" height="30" stroke="steelblue" stroke-width="2" width="80" x="1703" y="325"/>
    <text dominant-baseline="middle" font-size="10" font-weight="bold" text-anchor="middle" x="1743" y="340">FLUSSO_641</text>
  </g>
  <line class="Flusso_641" stroke="rgb(0,0,0)" stroke-width="3" x1="1182" x2="1182" y1="338" y2="550"/>
  <line class="Flusso_641" marker-end="url(#triangle)" stroke="rgb(0,0,0)" stroke-width="3" x1="2305" x2="2305" y1="342" y2="280"/>
  <line class="Flusso_658" stroke="rgb(0,0,0)" stroke-width="3" x1="1380" x2="2507" y1="350" y2="350"/>
  <g display="none" id="Flusso_658">
    <rect fill="white" height="30" stroke="steelblue" stroke-width="2" width="80" x="1903" y="335"/>
    <text dominant-baseline="middle" font-size="10" font-weight="bold" text-anchor="middle" x="1943" y="350">FLUSSO_658</text>
  </g>
  <line class="Flusso_658" stroke="rgb(0,0,0)" stroke-width="3" x1="2505" x2="2505" y1="280" y2="352"/>
  <line class="Flusso_658" marker-end="url(#triangle)" stroke="rgb(0,0,0)" stroke-width="3" x1="1382" x2="1382" y1="348" y2="550"/>
  <line class="Flusso_651" stroke="rgb(0,0,0)" stroke-width="3" x1="780" x2="1707" y1="360" y2="360"/>
  <g display="none" id="Flusso_651">
    <rect fill="white" height="30" stroke="steelblue" stroke-width="2" width="80" x="1203" y="345"/>
    <text dominant-baseline="middle" font-size="10" font-weight="bold" text-anchor="middle" x="1243" y="360">FLUSSO_651</text>
  </g>
  <line class="Flusso_651" stroke="rgb(0,0,0)" stroke-width="3" x1="782" x2="782" y1="358" y2="550"/>
  <line class="Flusso_651" marker-end="url(#triangle)" stroke="rgb(0,0,0)" stroke-width="3" x1="1705" x2="1705" y1="362" y2="280"/>
  <line class="Flusso_661" stroke="rgb(0,0,0)" stroke-width="3" x1="1503" x2="3107" y1="120" y2="120"/>
  <g display="none" id="Flusso_661">
    <rect fill="white" height="30" stroke="steelblue" stroke-width="2" width="80" x="2265" y="105"/>
    <text dominant-baseline="middle" font-size="10" font-weight="bold" text-anchor="middle" x="2305" y="120">FLUSSO_661</text>
  </g>
  <line class="Flusso_661" stroke="rgb(0,0,0)" stroke-width="3" x1="1505" x2="1505" y1="118" y2="180"/>
  <line class="Flusso_661" marker-end="url(#triangle)" stroke="rgb(0,0,0)" stroke-width="3" x1="3105" x2="3105" y1="118" y2="180"/>
  <line class="Flusso_639" stroke="rgb(0,0,0)" stroke-width="3" x1="1903" x2="2307" y1="110" y2="110"/>
  <g display="none" id="Flusso_639">
    <rect fill="white" height="30" stroke="steelblue" stroke-width="2" width="80" x="2065" y="95"/>
    <text dominant-baseline="middle" font-size="10" font-weight="bold" text-anchor="middle" x="2105" y="110">FLUSSO_639</text>
  </g>
  <line class="Flusso_639" stroke="rgb(0,0,0)" stroke-width="3" x1="1905" x2="1905" y1="108" y2="180"/>
  <line class="Flusso_639" marker-end="url(#triangle)" stroke="rgb(0,0,0)" stroke-width="3" x1="2305" x2="2305" y1="108" y2="180"/>
  <line class="Flusso_634" stroke="rgb(0,0,0)" stroke-width="3" x1="2780" x2="2907" y1="370" y2="370"/>
  <g display="none" id="Flusso_634">
    <rect fill="white" height="30" stroke="steelblue" stroke-width="2" width="80" x="2803" y="355"/>
    <text dominant-baseline="middle" font-size="10" font-weight="bold" text-anchor="middle" x="2843" y="370">FLUSSO_634</text>
  </g>
  <line class="Flusso_634" stroke="rgb(0,0,0)" stroke-width="3" x1="2905" x2="2905" y1="280" y2="372"/>
  <line class="Flusso_634" marker-end="url(#triangle)" stroke="rgb(0,0,0)" stroke-width="3" x1="2782" x2="2782" y1="368" y2="550"/>
  <line class="Flusso_646" stroke="rgb(0,0,0)" stroke-width="3" x1="2317" x2="2584" y1="380" y2="380"/>
  <g display="none" id="Flusso_646">
    <rect fill="white" height="30" stroke="steelblue" stroke-width="2" width="80" x="2410" y="365"/>
    <text dominant-baseline="middle" font-size="10" font-weight="bold" text-anchor="middle" x="2450" y="380">FLUSSO_646</text>
  </g>
  <line class="Flusso_646" stroke="rgb(0,0,0)" stroke-width="3" x1="2319" x2="2319" y1="280" y2="382"/>
  <line class="Flusso_646" marker-end="url(#triangle)" stroke="rgb(0,0,0)" stroke-width="3" x1="2582" x2="2582" y1="378" y2="550"/>
  <line class="Flusso_648" stroke="rgb(0,0,0)" stroke-width="3" x1="2903" x2="3121" y1="100" y2="100"/>
  <g display="none" id="Flusso_648">
    <rect fill="white" height="30" stroke="steelblue" stroke-width="2" width="80" x="2972" y="85"/>
    <text dominant-baseline="middle" font-size="10" font-weight="bold" text-anchor="middle" x="3012" y="100">FLUSSO_648</text>
  </g>
  <line class="Flusso_648" stroke="rgb(0,0,0)" stroke-width="3" x1="3119" x2="3119" y1="98" y2="180"/>
  <line class="Flusso_648" marker-end="url(#triangle)" stroke="rgb(0,0,0)" stroke-width="3" x1="2905" x2="2905" y1="98" y2="180"/>
  <line class="Flusso_657" stroke="rgb(0,0,0)" stroke-width="3" x1="180" x2="2521" y1="390" y2="390"/>
  <g display="none" id="Flusso_657">
    <rect fill="white" height="30" stroke="steelblue" stroke-width="2" width="80" x="1310" y="375"/>
    <text dominant-baseline="middle" font-size="10" font-weight="bold" text-anchor="middle" x="1350" y="390">FLUSSO_657</text>
  </g>
  <line class="Flusso_657" stroke="rgb(0,0,0)" stroke-width="3" x1="182" x2="182" y1="388" y2="550"/>
  <line class="Flusso_657" marker-end="url(#triangle)" stroke="rgb(0,0,0)" stroke-width="3" x1="2519" x2="2519" y1="392" y2="280"/>
  <line class="Flusso_633" stroke="rgb(0,0,0)" stroke-width="3" x1="303" x2="2321" y1="90" y2="90"/>
  <g display="none" id="Flusso_633">
    <rect fill="white" height="30" stroke="steelblue" stroke-width="2" width="80" x="1272" y="75"/>
    <text dominant-baseline="middle" font-size="10" font-weight="bold" text-anchor="middle" x="1312" y="90">FLUSSO_633</text>
  </g>
  <line class="Flusso_633" stroke="rgb(0,0,0)" stroke-width="3" x1="2319" x2="2319" y1="88" y2="180"/>
  <line class="Flusso_633" marker-end="url(#triangle)" stroke="rgb(0,0,0)" stroke-width="3" x1="305" x2="305" y1="88" y2="180"/>
  <line class="Flusso_643" stroke="rgb(0,0,0)" stroke-width="3" x1="2331" x2="2984" y1="400" y2="400"/>
  <g display="none" id="Flusso_643">
    <rect fill="white" height="30" stroke="steelblue" stroke-width="2" width="80" x="2617" y="385"/>
    <text dominant-baseline="middle" font-size="10" font-weight="bold" text-anchor="middle" x="2657" y="400">FLUSSO_643</text>
  </g>
  <line class="Flusso_643" stroke="rgb(0,0,0)" stroke-width="3" x1="2333" x2="2333" y1="280" y2="402"/>
  <line class="Flusso_643" marker-end="url(#triangle)" stroke="rgb(0,0,0)" stroke-width="3" x1="2982" x2="2982" y1="398" y2="550"/>
  <line class="Flusso_652" stroke="rgb(0,0,0)" stroke-width="3" x1="380" x2="1721" y1="410" y2="410"/>
  <g display="none" id="Flusso_652">
    <rect fill="white" height="30" stroke="steelblue" stroke-width="2" width="80" x="1010" y="395"/>
    <text dominant-baseline="middle" font-size="10" font-weight="bold" text-anchor="middle" x="1050" y="410">FLUSSO_652</text>
  </g>
  <line class="Flusso_652" stroke="rgb(0,0,0)" stroke-width="3" x1="382" x2="382" y1="408" y2="550"/>
  <line class="Flusso_652" marker-end="url(#triangle)" stroke="rgb(0,0,0)" stroke-width="3" x1="1719" x2="1719" y1="412" y2="280"/>
  <line class="Flusso_664" stroke="rgb(0,0,0)" stroke-width="3" x1="103" x2="1798" y1="420" y2="420"/>
  <g display="none" id="Flusso_664">
    <rect fill="white" height="30" stroke="steelblue" stroke-width="2" width="80" x="910" y="405"/>
    <text dominant-baseline="middle" font-size="10" font-weight="bold" text-anchor="middle" x="950" y="420">FLUSSO_664</text>
  </g>
  <line class="Flusso_664" stroke="rgb(0,0,0)" stroke-width="3" x1="1796" x2="1796" y1="418" y2="550"/>
  <line class="Flusso_664" marker-end="url(#triangle)" stroke="rgb(0,0,0)" stroke-width="3" x1="105" x2="105" y1="422" y2="280"/>
  <line class="Flusso_629" stroke="rgb(0,0,0)" stroke-width="3" x1="703" x2="1584" y1="430" y2="430"/>
  <g display="none" id="Flusso_629">
    <rect fill="white" height="30" stroke="steelblue" stroke-width="2" width="80" x="1103" y="415"/>
    <text dominant-baseline="middle" font-size="10" font-weight="bold" text-anchor="middle" x="1143" y="430">FLUSSO_629</text>
  </g>
  <line class="Flusso_629" stroke="rgb(0,0,0)" stroke-width="3" x1="705" x2="705" y1="280" y2="432"/>
  <line class="Flusso_629" marker-end="url(#triangle)" stroke="rgb(0,0,0)" stroke-width="3" x1="1582" x2="1582" y1="428" y2="550"/>
  <line class="Flusso_640" stroke="rgb(0,0,0)" stroke-width="3" x1="2345" x2="3384" y1="440" y2="440"/>
  <g display="none" id="Flusso_640">
    <rect fill="white" height="30" stroke="steelblue" stroke-width="2" width="80" x="2824" y="425"/>
    <text dominant-baseline="middle" font-size="10" font-weight="bold" text-anchor="middle" x="2864" y="440">FLUSSO_640</text>
  </g>
  <line class="Flusso_640" stroke="rgb(0,0,0)" stroke-width="3" x1="3382" x2="3382" y1="438" y2="550"/>
  <line class="Flusso_640" marker-end="url(#triangle)" stroke="rgb(0,0,0)" stroke-width="3" x1="2347" x2="2347" y1="442" y2="280"/>
  <line class="Flusso_660" stroke="rgb(0,0,0)" stroke-width="3" x1="980" x2="1307" y1="450" y2="450"/>
  <g display="none" id="Flusso_660">
    <rect fill="white" height="30" stroke="steelblue" stroke-width="2" width="80" x="1103" y="435"/>
    <text dominant-baseline="middle" font-size="10" font-weight="bold" text-anchor="middle" x="1143" y="450">FLUSSO_660</text>
  </g>
  <line class="Flusso_660" stroke="rgb(0,0,0)" stroke-width="3" x1="982" x2="982" y1="448" y2="550"/>
  <line class="Flusso_660" marker-end="url(#triangle)" stroke="rgb(0,0,0)" stroke-width="3" x1="1305" x2="1305" y1="452" y2="280"/>
  <line class="Flusso_636" stroke="rgb(0,0,0)" stroke-width="3" x1="117" x2="598" y1="460" y2="460"/>
  <g display="none" id="Flusso_636">
    <rect fill="white" height="30" stroke="steelblue" stroke-width="2" width="80" x="317" y="445"/>
    <text dominant-baseline="middle" font-size="10" font-weight="bold" text-anchor="middle" x="357" y="460">FLUSSO_636</text>
  </g>
  <line class="Flusso_636" stroke="rgb(0,0,0)" stroke-width="3" x1="119" x2="119" y1="280" y2="462"/>
  <line class="Flusso_636" marker-end="url(#triangle)" stroke="rgb(0,0,0)" stroke-width="3" x1="596" x2="596" y1="458" y2="550"/>
  <line class="Flusso_635" stroke="rgb(0,0,0)" stroke-width="3" x1="580" x2="2784" y1="670" y2="670"/>
  <g display="none" id="Flusso_635">
    <rect fill="white" height="30" stroke="steelblue" stroke-width="2" width="80" x="1642" y="655"/>
    <text dominant-baseline="middle" font-size="10" font-weight="bold" text-anchor="middle" x="1682" y="670">FLUSSO_635</text>
  </g>
  <line class="Flusso_635" stroke="rgb(0,0,0)" stroke-width="3" x1="582" x2="582" y1="672" y2="650"/>
  <line class="Flusso_635" marker-end="url(#triangle)" stroke="rgb(0,0,0)" stroke-width="3" x1="2782" x2="2782" y1="672" y2="650"/>
  <line class="Flusso_663" stroke="rgb(0,0,0)" stroke-width="3" x1="1380" x2="2384" y1="680" y2="680"/>
  <g display="none" id="Flusso_663">
    <rect fill="white" height="30" stroke="steelblue" stroke-width="2" width="80" x="1842" y="665"/>
    <text dominant-baseline="middle" font-size="10" font-weight="bold" text-anchor="middle" x="1882" y="680">FLUSSO_663</text>
  </g>
  <line class="Flusso_663" stroke="rgb(0,0,0)" stroke-width="3" x1="1382" x2="1382" y1="682" y2="650"/>
  <line class="Flusso_663" marker-end="url(#triangle)" stroke="rgb(0,0,0)" stroke-width="3" x1="2382" x2="2382" y1="682" y2="650"/>
  <line class="Flusso_654" stroke="rgb(0,0,0)" stroke-width="3" x1="1731" x2="2598" y1="470" y2="470"/>
  <g display="none" id="Flusso_654">
    <rect fill="white" height="30" stroke="steelblue" stroke-width="2" width="80" x="2124" y="455"/>
    <text dominant-baseline="middle" font-size="10" font-weight="bold" text-anchor="middle" x="2164" y="470">FLUSSO_654</text>
  </g>
  <line class="Flusso_654" stroke="rgb(0,0,0)" stroke-width="3" x1="2596" x2="2596" y1="468" y2="550"/>
  <line class="Flusso_654" marker-end="url(#triangle)" stroke="rgb(0,0,0)" stroke-width="3" x1="1733" x2="1733" y1="472" y2="280"/>
  <line class="Flusso_630" stroke="rgb(0,0,0)" stroke-width="3" x1="117" x2="721" y1="80" y2="80"/>
  <g display="none" id="Flusso_630">
    <rect fill="white" height="30" stroke="steelblue" stroke-width="2" width="80" x="379" y="65"/>
    <text dominant-baseline="middle" font-size="10" font-weight="bold" text-anchor="middle" x="419" y="80">FLUSSO_630</text>
  </g>
  <line class="Flusso_630" stroke="rgb(0,0,0)" stroke-width="3" x1="119" x2="119" y1="78" y2="180"/>
  <line class="Flusso_630" marker-end="url(#triangle)" stroke="rgb(0,0,0)" stroke-width="3" x1="719" x2="719" y1="78" y2="180"/>
  <line class="Flusso_642" stroke="rgb(0,0,0)" stroke-width="3" x1="1980" x2="2363" y1="480" y2="480"/>
  <g display="none" id="Flusso_642">
    <rect fill="white" height="30" stroke="steelblue" stroke-width="2" width="80" x="2131" y="465"/>
    <text dominant-baseline="middle" font-size="10" font-weight="bold" text-anchor="middle" x="2171" y="480">FLUSSO_642</text>
  </g>
  <line class="Flusso_642" stroke="rgb(0,0,0)" stroke-width="3" x1="1982" x2="1982" y1="478" y2="550"/>
  <line class="Flusso_642" marker-end="url(#triangle)" stroke="rgb(0,0,0)" stroke-width="3" x1="2361" x2="2361" y1="482" y2="280"/>
  <line class="Flusso_659" stroke="rgb(0,0,0)" stroke-width="3" x1="1517" x2="2107" y1="70" y2="70"/>
  <g display="none" id="Flusso_659">
    <rect fill="white" height="30" stroke="steelblue" stroke-width="2" width="80" x="1772" y="55"/>
    <text dominant-baseline="middle" font-size="10" font-weight="bold" text-anchor="middle" x="1812" y="70">FLUSSO_659</text>
  </g>
  <line class="Flusso_659" stroke="rgb(0,0,0)" stroke-width="3" x1="1519" x2="1519" y1="68" y2="180"/>
  <line class="Flusso_659" marker-end="url(#triangle)" stroke="rgb(0,0,0)" stroke-width="3" x1="2105" x2="2105" y1="68" y2="180"/>
  <line class="Flusso_650" stroke="rgb(0,0,0)" stroke-width="3" x1="194" x2="1749" y1="490" y2="490"/>
  <g display="none" id="Flusso_650">
    <rect fill="white" height="30" stroke="steelblue" stroke-width="2" width="80" x="931" y="475"/>
    <text dominant-baseline="middle" font-size="10" font-weight="bold" text-anchor="middle" x="971" y="490">FLUSSO_650</text>
  </g>
  <line class="Flusso_650" stroke="rgb(0,0,0)" stroke-width="3" x1="1747" x2="1747" y1="280" y2="492"/>
  <line class="Flusso_650" marker-end="url(#triangle)" stroke="rgb(0,0,0)" stroke-width="3" x1="196" x2="196" y1="488" y2="550"/>
  <line class="Flusso_653" stroke="rgb(0,0,0)" stroke-width="3" x1="903" x2="1721" y1="60" y2="60"/>
  <g display="none" id="Flusso_653">
    <rect fill="white" height="30" stroke="steelblue" stroke-width="2" width="80" x="1272" y="45"/>
    <text dominant-baseline="middle" font-size="10" font-weight="bold" text-anchor="middle" x="1312" y="60">FLUSSO_653</text>
  </g>
  <line class="Flusso_653" stroke="rgb(0,0,0)" stroke-width="3" x1="905" x2="905" y1="58" y2="180"/>
  <line class="Flusso_653" marker-end="url(#triangle)" stroke="rgb(0,0,0)" stroke-width="3" x1="1719" x2="1719" y1="58" y2="180"/>
  <line class="Flusso_645" stroke="rgb(0,0,0)" stroke-width="3" x1="3303" x2="3521" y1="50" y2="50"/>
  <g display="none" id="Flusso_645">
    <rect fill="white" height="30" stroke="steelblue" stroke-width="2" width="80" x="3372" y="35"/>
    <text dominant-baseline="middle" font-size="10" font-weight="bold" text-anchor="middle" x="3412" y="50">FLUSSO_645</text>
  </g>
  <line class="Flusso_645" stroke="rgb(0,0,0)" stroke-width="3" x1="3519" x2="3519" y1="48" y2="180"/>
  <line class="Flusso_645" marker-end="url(#triangle)" stroke="rgb(0,0,0)" stroke-width="3" x1="3305" x2="3305" y1="48" y2="180"/>
  <line class="Flusso_666" stroke="rgb(0,0,0)" stroke-width="3" x1="1117" x2="1812" y1="500" y2="500"/>
  <g display="none" id="Flusso_666">
    <rect fill="white" height="30" stroke="steelblue" stroke-width="2" width="80" x="1424" y="485"/>
    <text dominant-baseline="middle" font-size="10" font-weight="bold" text-anchor="middle" x="1464" y="500">FLUSSO_666</text>
  </g>
  <line class="Flusso_666" stroke="rgb(0,0,0)" stroke-width="3" x1="1810" x2="1810" y1="498" y2="550"/>
  <line class="Flusso_666" marker-end="url(#triangle)" stroke="rgb(0,0,0)" stroke-width="3" x1="1119" x2="1119" y1="502" y2="280"/>
  <line class="Flusso_632" stroke="rgb(0,0,0)" stroke-width="3" x1="1903" x2="3184" y1="510" y2="510"/>
  <g display="none" id="Flusso_632">
    <rect fill="white" height="30" stroke="steelblue" stroke-width="2" width="80" x="2503" y="495"/>
    <text dominant-baseline="middle" font-size="10" font-weight="bold" text-anchor="middle" x="2543" y="510">FLUSSO_632</text>
  </g>
  <line class="Flusso_632" stroke="rgb(0,0,0)" stroke-width="3" x1="3182" x2="3182" y1="508" y2="550"/>
  <line class="Flusso_632" marker-end="url(#triangle)" stroke="rgb(0,0,0)" stroke-width="3" x1="1905" x2="1905" y1="512" y2="280"/>
  <line class="Flusso_662" stroke="rgb(0,0,0)" stroke-width="3" x1="917" x2="1307" y1="40" y2="40"/>
  <g display="none" id="Flusso_662">
    <rect fill="white" height="30" stroke="steelblue" stroke-width="2" width="80" x="1072" y="25"/>
    <text dominant-baseline="middle" font-size="10" font-weight="bold" text-anchor="middle" x="1112" y="40">FLUSSO_662</text>
  </g>
  <line class="Flusso_662" stroke="rgb(0,0,0)" stroke-width="3" x1="1305" x2="1305" y1="38" y2="180"/>
  <line class="Flusso_662" marker-end="url(#triangle)" stroke="rgb(0,0,0)" stroke-width="3" x1="919" x2="919" y1="38" y2="180"/>
  <line class="Flusso_638" stroke="rgb(0,0,0)" stroke-width="3" x1="2373" x2="2798" y1="520" y2="520"/>
  <g display="none" id="Flusso_638">
    <rect fill="white" height="30" stroke="steelblue" stroke-width="2" width="80" x="2545" y="505"/>
    <text dominant-baseline="middle" font-size="10" font-weight="bold" text-anchor="middle" x="2585" y="520">FLUSSO_638</text>
  </g>
  <line class="Flusso_638" stroke="rgb(0,0,0)" stroke-width="3" x1="2796" x2="2796" y1="518" y2="550"/>
  <line class="Flusso_638" marker-end="url(#triangle)" stroke="rgb(0,0,0)" stroke-width="3" x1="2375" x2="2375" y1="522" y2="280"/>
  <line class="Flusso_647" stroke="rgb(0,0,0)" stroke-width="3" x1="2117" x2="2921" y1="30" y2="30"/>
  <g display="none" id="Flusso_647">
    <rect fill="white" height="30" stroke="steelblue" stroke-width="2" width="80" x="2479" y="15"/>
    <text dominant-baseline="middle" font-size="10" font-weight="bold" text-anchor="middle" x="2519" y="30">FLUSSO_647</text>
  </g>
  <line class="Flusso_647" stroke="rgb(0,0,0)" stroke-width="3" x1="2119" x2="2119" y1="28" y2="180"/>
  <line class="Flusso_647" marker-end="url(#triangle)" stroke="rgb(0,0,0)" stroke-width="3" x1="2919" x2="2919" y1="28" y2="180"/>
  <use xlink:href="#Flusso_649"/>
  <use xlink:href="#Flusso_656"/>
  <use xlink:href="#Flusso_631"/>
  <use xlink:href="#Flusso_637"/>
  <use xlink:href="#Flusso_644"/>
  <use xlink:href="#Flusso_655"/>
  <use xlink:href="#Flusso_665"/>
  <use xlink:href="#Flusso_641"/>
  <use xlink:href="#Flusso_658"/>
  <use xlink:href="#Flusso_651"/>
  <use xlink:href="#Flusso_661"/>
  <use xlink:href="#Flusso_639"/>
  <use xlink:href="#Flusso_634"/>
  <use xlink:href="#Flusso_646"/>
  <use xlink:href="#Flusso_648"/>
  <use xlink:href="#Flusso_657"/>
  <use xlink:href="#Flusso_633"/>
  <use xlink:href="#Flusso_643"/>
  <use xlink:href="#Flusso_652"/>
  <use xlink:href="#Flusso_664"/>
  <use xlink:href="#Flusso_629"/>
  <use xlink:href="#Flusso_640"/>
  <use xlink:href="#Flusso_660"/>
  <use xlink:href="#Flusso_636"/>
  <use xlink:href="#Flusso_635"/>
  <use xlink:href="#Flusso_663"/>
  <use xlink:href="#Flusso_654"/>
  <use xlink:href="#Flusso_630"/>
  <use xlink:href="#Flusso_642"/>
  <use xlink:href="#Flusso_659"/>
  <use xlink:href="#Flusso_650"/>
  <use xlink:href="#Flusso_653"/>
  <use xlink:href="#Flusso_645"/>
  <use xlink:href="#Flusso_666"/>
  <use xlink:href="#Flusso_632"/>
  <use xlink:href="#Flusso_662"/>
  <use xlink:href="#Flusso_638"/>
  <use xlink:href="#Flusso_647"/>
  <script type="text/javascript">
var lines = ["Flusso_649", "Flusso_656", "Flusso_631", "Flusso_637", "Flusso_644", "Flusso_655", "Flusso_665", "Flusso_641", "Flusso_658", "Flusso_651", "Flusso_661", "Flusso_639", "Flusso_634", "Flusso_646", "Flusso_648", "Flusso_657", "Flusso_633", "Flusso_643", "Flusso_652", "Flusso_664", "Flusso_629", "Flusso_640", "Flusso_660", "Flusso_636", "Flusso_635", "Flusso_663", "Flusso_654", "Flusso_630", "Flusso_642", "Flusso_659", "Flusso_650", "Flusso_653", "Flusso_645", "Flusso_666", "Flusso_632", "Flusso_662", "Flusso_638", "Flusso_647"];
var devices = [["md440", "ul74"], ["p440b", "ritornos410exit"], ["p440b", "ul72"], ["p440b", "ul71"], ["k441", "exit"], ["p440a", "ritornos410exit"], ["K2CO3.txtkohstart", "lv-201"], ["polveristart", "r440"], ["mc-492a", "mc-492b"], ["mc-445start", "md440"], ["ms441sstart", "p442b"], ["fv106", "r440"], ["ul70", "fv205"], ["r440", "mc-443"], ["p442b", "ul70"], ["me-440", "mc-492a"], ["r440", "condottofumiexit"], ["r440", "mc-440"], ["mc-446start", "md440"], ["lv-201", "p440a"], ["ul72", "ams441"], ["generatoregasdiprocessostart", "r440"], ["ariaambientestart", "ul73"], ["p440a", "ul71"], ["ul71", "fv205"], ["mc-492b", "K2CO3.txtexit2"], ["mc-443", "md440"], ["p440a", "ul72"], ["mc442start", "r440"], ["ms441sstart", "p442a"], ["md440", "me-440"], ["k440", "md440"], ["ul74", "k441"], ["lv-201", "p440b"], ["ai9start", "fv106"], ["ul73", "k440"], ["fv205", "r440"], ["p442a", "ul70"]];
var elementLines = [];
var elementDevices = [];
var n = [];
var nD = [];
function highlight(className, value, display) {
    document.getElementById(className.baseVal).setAttribute("display", display);
    for(var i = 0; i &lt;  n[className.baseVal]; i ++) {
        elementLines[className.baseVal][i].setAttribute("stroke-width", value);
    }
    for(var i = 0; i &lt; nD[className.baseVal]; i++) {
        elementDevices[className.baseVal][i].setAttribute("stroke-width", value);
    }
}
for(var i = 0; i &lt; lines.length; i++) {
    var currentClass = lines[i];
    elementLines[currentClass] = document.getElementsByClassName(currentClass);
    n[currentClass] = elementLines[currentClass].length;
    nD[currentClass] = devices[i].length;
    elementDevices[currentClass] = [];
    for(var j = 0; j &lt; nD[currentClass]; j++) {
        elementDevices[currentClass][j] = document.getElementById(devices[i][j]);
    }
    for(var k = 0; k &lt; n[currentClass]; k++) {
        elementLines[currentClass][k].onmouseover = function() {
            highlight(this.className, "7", "block");
        };
        elementLines[currentClass][k].onmouseout = function() {
            highlight(this.className, "3", "none");
        };
    }
};</script>
</svg>
