<?xml version="1.0" encoding="UTF-8" standalone="no"?>
<svg xmlns="http://www.w3.org/2000/svg" xmlns:xlink="http://www.w3.org/1999/xlink" height="100%" viewBox="0 0 2750 600" width="100%">
  <marker fill="rgb(255,60,60)" id="triangle" markerHeight="4" markerWidth="4" orient="auto" refX="7" refY="5" viewBox="0 0 10 10">
    <path d="M 0 0 L 10 5 L 0 10 z"/>
  </marker>
  <rect fill="aliceblue" height="100" id="xv2230b-4" stroke="skyblue" stroke-width="3" width="150" x="2300" y="120"/>
  <text dominant-baseline="middle" font-weight="bold" text-anchor="middle" x="2375" y="170">XV2230B-4</text>
  <rect fill="aliceblue" height="100" id="xv2230a-4" stroke="skyblue" stroke-width="3" width="150" x="577" y="430"/>
  <text dominant-baseline="middle" font-weight="bold" text-anchor="middle" x="652" y="480">XV2230A-4</text>
  <rect fill="aliceblue" height="100" id="s-2230a" stroke="skyblue" stroke-width="3" width="150" x="100" y="120"/>
  <text dominant-baseline="middle" font-weight="bold" text-anchor="middle" x="175" y="170">S-2230A</text>
  <rect fill="aliceblue" height="100" id="e-2228" stroke="skyblue" stroke-width="3" width="150" x="1100" y="120"/>
  <text dominant-baseline="middle" font-weight="bold" text-anchor="middle" x="1175" y="170">E-2228</text>
  <rect fill="aliceblue" height="100" id="s-2230b" stroke="skyblue" stroke-width="3" width="150" x="2377" y="430"/>
  <text dominant-baseline="middle" font-weight="bold" text-anchor="middle" x="2452" y="480">S-2230B</text>
  <rect fill="aliceblue" height="100" id="r-5317exit" stroke="skyblue" stroke-width="3" width="150" x="777" y="430"/>
  <text dominant-baseline="middle" font-weight="bold" text-anchor="middle" x="852" y="480">R-5317EXIT</text>
  <rect fill="aliceblue" height="100" id="cwrexit" stroke="skyblue" stroke-width="3" width="150" x="177" y="430"/>
  <text dominant-baseline="middle" font-weight="bold" text-anchor="middle" x="252" y="480">CWREXIT</text>
  <rect fill="aliceblue" height="100" id="exit1" stroke="skyblue" stroke-width="3" width="150" x="1700" y="120"/>
  <text dominant-baseline="middle" font-weight="bold" text-anchor="middle" x="1775" y="170">EXIT1</text>
  <rect fill="aliceblue" height="100" id="p-5102a-bstart" stroke="skyblue" stroke-width="3" width="150" x="1900" y="120"/>
  <text dominant-baseline="middle" font-weight="bold" text-anchor="middle" x="1975" y="170">P-5102A-BSTART</text>
  <rect fill="aliceblue" height="100" id="s2226b" stroke="skyblue" stroke-width="3" width="150" x="700" y="120"/>
  <text dominant-baseline="middle" font-weight="bold" text-anchor="middle" x="775" y="170">S2226B</text>
  <rect fill="aliceblue" height="100" id="xv2228" stroke="skyblue" stroke-width="3" width="150" x="300" y="120"/>
  <text dominant-baseline="middle" font-weight="bold" text-anchor="middle" x="375" y="170">XV2228</text>
  <rect fill="aliceblue" height="100" id="p5338b" stroke="skyblue" stroke-width="3" width="150" x="1177" y="430"/>
  <text dominant-baseline="middle" font-weight="bold" text-anchor="middle" x="1252" y="480">P5338B</text>
  <rect fill="aliceblue" height="100" id="p5338a" stroke="skyblue" stroke-width="3" width="150" x="1577" y="430"/>
  <text dominant-baseline="middle" font-weight="bold" text-anchor="middle" x="1652" y="480">P5338A</text>
  <rect fill="aliceblue" height="100" id="p5346a" stroke="skyblue" stroke-width="3" width="150" x="1300" y="120"/>
  <text dominant-baseline="middle" font-weight="bold" text-anchor="middle" x="1375" y="170">P5346A</text>
  <rect fill="aliceblue" height="100" id="exit" stroke="skyblue" stroke-width="3" width="150" x="1977" y="430"/>
  <text dominant-baseline="middle" font-weight="bold" text-anchor="middle" x="2052" y="480">EXIT</text>
  <rect fill="aliceblue" height="100" id="xtcwstart" stroke="skyblue" stroke-width="3" width="150" x="1500" y="120"/>
  <text dominant-baseline="middle" font-weight="bold" text-anchor="middle" x="1575" y="170">XTCWSTART</text>
  <rect fill="aliceblue" height="100" id="p5346b" stroke="skyblue" stroke-width="3" width="150" x="977" y="430"/>
  <text dominant-baseline="middle" font-weight="bold" text-anchor="middle" x="1052" y="480">P5346B</text>
  <rect fill="aliceblue" height="100" id="mx-5371exit" stroke="skyblue" stroke-width="3" width="150" x="500" y="120"/>
  <text dominant-baseline="middle" font-weight="bold" text-anchor="middle" x="575" y="170">MX-5371EXIT</text>
  <rect fill="aliceblue" height="100" id="ul111" stroke="skyblue" stroke-width="3" width="150" x="377" y="430"/>
  <text dominant-baseline="middle" font-weight="bold" text-anchor="middle" x="452" y="480">UL111</text>
  <rect fill="aliceblue" height="100" id="p2227a" stroke="skyblue" stroke-width="3" width="150" x="2100" y="120"/>
  <text dominant-baseline="middle" font-weight="bold" text-anchor="middle" x="2175" y="170">P2227A</text>
  <rect fill="aliceblue" height="100" id="ul110" stroke="skyblue" stroke-width="3" width="150" x="900" y="120"/>
  <text dominant-baseline="middle" font-weight="bold" text-anchor="middle" x="975" y="170">UL110</text>
  <rect fill="aliceblue" height="100" id="p2227b" stroke="skyblue" stroke-width="3" width="150" x="2177" y="430"/>
  <text dominant-baseline="middle" font-weight="bold" text-anchor="middle" x="2252" y="480">P2227B</text>
  <rect fill="aliceblue" height="100" id="p-1504start" stroke="skyblue" stroke-width="3" width="150" x="2500" y="120"/>
  <text dominant-baseline="middle" font-weight="bold" text-anchor="middle" x="2575" y="170">P-1504START</text>
  <rect fill="aliceblue" height="100" id="xtexit2" stroke="skyblue" stroke-width="3" width="150" x="1777" y="430"/>
  <text dominant-baseline="middle" font-weight="bold" text-anchor="middle" x="1852" y="480">XTEXIT2</text>
  <rect fill="aliceblue" height="100" id="mx2234" stroke="skyblue" stroke-width="3" width="150" x="1377" y="430"/>
  <text dominant-baseline="middle" font-weight="bold" text-anchor="middle" x="1452" y="480">MX2234</text>
  <line class="Flusso_730" stroke="rgb(0,0,0)" stroke-width="3" x1="903" x2="2184" y1="250" y2="250"/>
  <g display="none" id="Flusso_730">
    <rect fill="white" height="30" stroke="steelblue" stroke-width="2" width="80" x="1503" y="235"/>
    <text dominant-baseline="middle" font-size="10" font-weight="bold" text-anchor="middle" x="1543" y="250">FLUSSO_730</text>
  </g>
  <line class="Flusso_730" stroke="rgb(0,0,0)" stroke-width="3" x1="2182" x2="2182" y1="248" y2="430"/>
  <line class="Flusso_730" marker-end="url(#triangle)" stroke="rgb(0,0,0)" stroke-width="3" x1="905" x2="905" y1="252" y2="220"/>
  <line class="Flusso_734" stroke="rgb(0,0,0)" stroke-width="3" x1="703" x2="2198" y1="260" y2="260"/>
  <g display="none" id="Flusso_734">
    <rect fill="white" height="30" stroke="steelblue" stroke-width="2" width="80" x="1410" y="245"/>
    <text dominant-baseline="middle" font-size="10" font-weight="bold" text-anchor="middle" x="1450" y="260">FLUSSO_734</text>
  </g>
  <line class="Flusso_734" stroke="rgb(0,0,0)" stroke-width="3" x1="705" x2="705" y1="220" y2="262"/>
  <line class="Flusso_734" marker-end="url(#triangle)" stroke="rgb(0,0,0)" stroke-width="3" x1="2196" x2="2196" y1="258" y2="430"/>
  <line class="Flusso_716" stroke="rgb(0,0,0)" stroke-width="3" x1="717" x2="984" y1="270" y2="270"/>
  <g display="none" id="Flusso_716">
    <rect fill="white" height="30" stroke="steelblue" stroke-width="2" width="80" x="810" y="255"/>
    <text dominant-baseline="middle" font-size="10" font-weight="bold" text-anchor="middle" x="850" y="270">FLUSSO_716</text>
  </g>
  <line class="Flusso_716" stroke="rgb(0,0,0)" stroke-width="3" x1="719" x2="719" y1="220" y2="272"/>
  <line class="Flusso_716" marker-end="url(#triangle)" stroke="rgb(0,0,0)" stroke-width="3" x1="982" x2="982" y1="268" y2="430"/>
  <line class="Flusso_711" stroke="rgb(0,0,0)" stroke-width="3" x1="780" x2="1307" y1="280" y2="280"/>
  <g display="none" id="Flusso_711">
    <rect fill="white" height="30" stroke="steelblue" stroke-width="2" width="80" x="1003" y="265"/>
    <text dominant-baseline="middle" font-size="10" font-weight="bold" text-anchor="middle" x="1043" y="280">FLUSSO_711</text>
  </g>
  <line class="Flusso_711" stroke="rgb(0,0,0)" stroke-width="3" x1="1305" x2="1305" y1="220" y2="282"/>
  <line class="Flusso_711" marker-end="url(#triangle)" stroke="rgb(0,0,0)" stroke-width="3" x1="782" x2="782" y1="278" y2="430"/>
  <line class="Flusso_723" stroke="rgb(0,0,0)" stroke-width="3" x1="731" x2="1184" y1="290" y2="290"/>
  <g display="none" id="Flusso_723">
    <rect fill="white" height="30" stroke="steelblue" stroke-width="2" width="80" x="917" y="275"/>
    <text dominant-baseline="middle" font-size="10" font-weight="bold" text-anchor="middle" x="957" y="290">FLUSSO_723</text>
  </g>
  <line class="Flusso_723" stroke="rgb(0,0,0)" stroke-width="3" x1="733" x2="733" y1="220" y2="292"/>
  <line class="Flusso_723" marker-end="url(#triangle)" stroke="rgb(0,0,0)" stroke-width="3" x1="1182" x2="1182" y1="288" y2="430"/>
  <line class="Flusso_720" stroke="rgb(0,0,0)" stroke-width="3" x1="1103" x2="1384" y1="300" y2="300"/>
  <g display="none" id="Flusso_720">
    <rect fill="white" height="30" stroke="steelblue" stroke-width="2" width="80" x="1203" y="285"/>
    <text dominant-baseline="middle" font-size="10" font-weight="bold" text-anchor="middle" x="1243" y="300">FLUSSO_720</text>
  </g>
  <line class="Flusso_720" stroke="rgb(0,0,0)" stroke-width="3" x1="1382" x2="1382" y1="298" y2="430"/>
  <line class="Flusso_720" marker-end="url(#triangle)" stroke="rgb(0,0,0)" stroke-width="3" x1="1105" x2="1105" y1="302" y2="220"/>
  <line class="Flusso_726" stroke="rgb(0,0,0)" stroke-width="3" x1="917" x2="1398" y1="310" y2="310"/>
  <g display="none" id="Flusso_726">
    <rect fill="white" height="30" stroke="steelblue" stroke-width="2" width="80" x="1117" y="295"/>
    <text dominant-baseline="middle" font-size="10" font-weight="bold" text-anchor="middle" x="1157" y="310">FLUSSO_726</text>
  </g>
  <line class="Flusso_726" stroke="rgb(0,0,0)" stroke-width="3" x1="919" x2="919" y1="220" y2="312"/>
  <line class="Flusso_726" marker-end="url(#triangle)" stroke="rgb(0,0,0)" stroke-width="3" x1="1396" x2="1396" y1="308" y2="430"/>
  <line class="Flusso_717" stroke="rgb(0,0,0)" stroke-width="3" x1="503" x2="1584" y1="320" y2="320"/>
  <g display="none" id="Flusso_717">
    <rect fill="white" height="30" stroke="steelblue" stroke-width="2" width="80" x="1003" y="305"/>
    <text dominant-baseline="middle" font-size="10" font-weight="bold" text-anchor="middle" x="1043" y="320">FLUSSO_717</text>
  </g>
  <line class="Flusso_717" stroke="rgb(0,0,0)" stroke-width="3" x1="1582" x2="1582" y1="318" y2="430"/>
  <line class="Flusso_717" marker-end="url(#triangle)" stroke="rgb(0,0,0)" stroke-width="3" x1="505" x2="505" y1="322" y2="220"/>
  <line class="Flusso_737" stroke="rgb(0,0,0)" stroke-width="3" x1="2303" x2="2384" y1="330" y2="330"/>
  <g display="none" id="Flusso_737">
    <rect fill="white" height="30" stroke="steelblue" stroke-width="2" width="80" x="2303" y="315"/>
    <text dominant-baseline="middle" font-size="10" font-weight="bold" text-anchor="middle" x="2343" y="330">FLUSSO_737</text>
  </g>
  <line class="Flusso_737" stroke="rgb(0,0,0)" stroke-width="3" x1="2305" x2="2305" y1="220" y2="332"/>
  <line class="Flusso_737" marker-end="url(#triangle)" stroke="rgb(0,0,0)" stroke-width="3" x1="2382" x2="2382" y1="328" y2="430"/>
  <line class="Flusso_713" stroke="rgb(0,0,0)" stroke-width="3" x1="703" x2="1307" y1="100" y2="100"/>
  <g display="none" id="Flusso_713">
    <rect fill="white" height="30" stroke="steelblue" stroke-width="2" width="80" x="965" y="85"/>
    <text dominant-baseline="middle" font-size="10" font-weight="bold" text-anchor="middle" x="1005" y="100">FLUSSO_713</text>
  </g>
  <line class="Flusso_713" stroke="rgb(0,0,0)" stroke-width="3" x1="705" x2="705" y1="98" y2="120"/>
  <line class="Flusso_713" marker-end="url(#triangle)" stroke="rgb(0,0,0)" stroke-width="3" x1="1305" x2="1305" y1="98" y2="120"/>
  <line class="Flusso_732" stroke="rgb(0,0,0)" stroke-width="3" x1="1780" x2="2384" y1="550" y2="550"/>
  <g display="none" id="Flusso_732">
    <rect fill="white" height="30" stroke="steelblue" stroke-width="2" width="80" x="2042" y="535"/>
    <text dominant-baseline="middle" font-size="10" font-weight="bold" text-anchor="middle" x="2082" y="550">FLUSSO_732</text>
  </g>
  <line class="Flusso_732" stroke="rgb(0,0,0)" stroke-width="3" x1="2382" x2="2382" y1="552" y2="530"/>
  <line class="Flusso_732" marker-end="url(#triangle)" stroke="rgb(0,0,0)" stroke-width="3" x1="1782" x2="1782" y1="552" y2="530"/>
  <line class="Flusso_736" stroke="rgb(0,0,0)" stroke-width="3" x1="745" x2="1984" y1="340" y2="340"/>
  <g display="none" id="Flusso_736">
    <rect fill="white" height="30" stroke="steelblue" stroke-width="2" width="80" x="1324" y="325"/>
    <text dominant-baseline="middle" font-size="10" font-weight="bold" text-anchor="middle" x="1364" y="340">FLUSSO_736</text>
  </g>
  <line class="Flusso_736" stroke="rgb(0,0,0)" stroke-width="3" x1="747" x2="747" y1="220" y2="342"/>
  <line class="Flusso_736" marker-end="url(#triangle)" stroke="rgb(0,0,0)" stroke-width="3" x1="1982" x2="1982" y1="338" y2="430"/>
  <line class="Flusso_729" stroke="rgb(0,0,0)" stroke-width="3" x1="103" x2="1707" y1="90" y2="90"/>
  <g display="none" id="Flusso_729">
    <rect fill="white" height="30" stroke="steelblue" stroke-width="2" width="80" x="865" y="75"/>
    <text dominant-baseline="middle" font-size="10" font-weight="bold" text-anchor="middle" x="905" y="90">FLUSSO_729</text>
  </g>
  <line class="Flusso_729" stroke="rgb(0,0,0)" stroke-width="3" x1="105" x2="105" y1="88" y2="120"/>
  <line class="Flusso_729" marker-end="url(#triangle)" stroke="rgb(0,0,0)" stroke-width="3" x1="1705" x2="1705" y1="88" y2="120"/>
  <line class="Flusso_728" stroke="rgb(0,0,0)" stroke-width="3" x1="580" x2="1121" y1="350" y2="350"/>
  <g display="none" id="Flusso_728">
    <rect fill="white" height="30" stroke="steelblue" stroke-width="2" width="80" x="810" y="335"/>
    <text dominant-baseline="middle" font-size="10" font-weight="bold" text-anchor="middle" x="850" y="350">FLUSSO_728</text>
  </g>
  <line class="Flusso_728" stroke="rgb(0,0,0)" stroke-width="3" x1="1119" x2="1119" y1="220" y2="352"/>
  <line class="Flusso_728" marker-end="url(#triangle)" stroke="rgb(0,0,0)" stroke-width="3" x1="582" x2="582" y1="348" y2="430"/>
  <line class="Flusso_712" stroke="rgb(0,0,0)" stroke-width="3" x1="780" x2="984" y1="560" y2="560"/>
  <g display="none" id="Flusso_712">
    <rect fill="white" height="30" stroke="steelblue" stroke-width="2" width="80" x="842" y="545"/>
    <text dominant-baseline="middle" font-size="10" font-weight="bold" text-anchor="middle" x="882" y="560">FLUSSO_712</text>
  </g>
  <line class="Flusso_712" stroke="rgb(0,0,0)" stroke-width="3" x1="982" x2="982" y1="562" y2="530"/>
  <line class="Flusso_712" marker-end="url(#triangle)" stroke="rgb(0,0,0)" stroke-width="3" x1="782" x2="782" y1="562" y2="530"/>
  <line class="Flusso_725" stroke="rgb(0,0,0)" stroke-width="3" x1="717" x2="2107" y1="80" y2="80"/>
  <g display="none" id="Flusso_725">
    <rect fill="white" height="30" stroke="steelblue" stroke-width="2" width="80" x="1372" y="65"/>
    <text dominant-baseline="middle" font-size="10" font-weight="bold" text-anchor="middle" x="1412" y="80">FLUSSO_725</text>
  </g>
  <line class="Flusso_725" stroke="rgb(0,0,0)" stroke-width="3" x1="2105" x2="2105" y1="78" y2="120"/>
  <line class="Flusso_725" marker-end="url(#triangle)" stroke="rgb(0,0,0)" stroke-width="3" x1="719" x2="719" y1="78" y2="120"/>
  <line class="Flusso_719" stroke="rgb(0,0,0)" stroke-width="3" x1="303" x2="1107" y1="70" y2="70"/>
  <g display="none" id="Flusso_719">
    <rect fill="white" height="30" stroke="steelblue" stroke-width="2" width="80" x="665" y="55"/>
    <text dominant-baseline="middle" font-size="10" font-weight="bold" text-anchor="middle" x="705" y="70">FLUSSO_719</text>
  </g>
  <line class="Flusso_719" stroke="rgb(0,0,0)" stroke-width="3" x1="305" x2="305" y1="68" y2="120"/>
  <line class="Flusso_719" marker-end="url(#triangle)" stroke="rgb(0,0,0)" stroke-width="3" x1="1105" x2="1105" y1="68" y2="120"/>
  <line class="Flusso_722" stroke="rgb(0,0,0)" stroke-width="3" x1="317" x2="1507" y1="60" y2="60"/>
  <g display="none" id="Flusso_722">
    <rect fill="white" height="30" stroke="steelblue" stroke-width="2" width="80" x="872" y="45"/>
    <text dominant-baseline="middle" font-size="10" font-weight="bold" text-anchor="middle" x="912" y="60">FLUSSO_722</text>
  </g>
  <line class="Flusso_722" stroke="rgb(0,0,0)" stroke-width="3" x1="1505" x2="1505" y1="58" y2="120"/>
  <line class="Flusso_722" marker-end="url(#triangle)" stroke="rgb(0,0,0)" stroke-width="3" x1="319" x2="319" y1="58" y2="120"/>
  <line class="Flusso_733" stroke="rgb(0,0,0)" stroke-width="3" x1="1117" x2="2307" y1="50" y2="50"/>
  <g display="none" id="Flusso_733">
    <rect fill="white" height="30" stroke="steelblue" stroke-width="2" width="80" x="1672" y="35"/>
    <text dominant-baseline="middle" font-size="10" font-weight="bold" text-anchor="middle" x="1712" y="50">FLUSSO_733</text>
  </g>
  <line class="Flusso_733" stroke="rgb(0,0,0)" stroke-width="3" x1="1119" x2="1119" y1="48" y2="120"/>
  <line class="Flusso_733" marker-end="url(#triangle)" stroke="rgb(0,0,0)" stroke-width="3" x1="2305" x2="2305" y1="48" y2="120"/>
  <line class="Flusso_715" stroke="rgb(0,0,0)" stroke-width="3" x1="180" x2="1135" y1="360" y2="360"/>
  <g display="none" id="Flusso_715">
    <rect fill="white" height="30" stroke="steelblue" stroke-width="2" width="80" x="617" y="345"/>
    <text dominant-baseline="middle" font-size="10" font-weight="bold" text-anchor="middle" x="657" y="360">FLUSSO_715</text>
  </g>
  <line class="Flusso_715" stroke="rgb(0,0,0)" stroke-width="3" x1="1133" x2="1133" y1="220" y2="362"/>
  <line class="Flusso_715" marker-end="url(#triangle)" stroke="rgb(0,0,0)" stroke-width="3" x1="182" x2="182" y1="358" y2="430"/>
  <line class="Flusso_727" stroke="rgb(0,0,0)" stroke-width="3" x1="380" x2="1384" y1="570" y2="570"/>
  <g display="none" id="Flusso_727">
    <rect fill="white" height="30" stroke="steelblue" stroke-width="2" width="80" x="842" y="555"/>
    <text dominant-baseline="middle" font-size="10" font-weight="bold" text-anchor="middle" x="882" y="570">FLUSSO_727</text>
  </g>
  <line class="Flusso_727" stroke="rgb(0,0,0)" stroke-width="3" x1="382" x2="382" y1="572" y2="530"/>
  <line class="Flusso_727" marker-end="url(#triangle)" stroke="rgb(0,0,0)" stroke-width="3" x1="1382" x2="1382" y1="572" y2="530"/>
  <line class="Flusso_718" stroke="rgb(0,0,0)" stroke-width="3" x1="517" x2="1198" y1="370" y2="370"/>
  <g display="none" id="Flusso_718">
    <rect fill="white" height="30" stroke="steelblue" stroke-width="2" width="80" x="817" y="355"/>
    <text dominant-baseline="middle" font-size="10" font-weight="bold" text-anchor="middle" x="857" y="370">FLUSSO_718</text>
  </g>
  <line class="Flusso_718" stroke="rgb(0,0,0)" stroke-width="3" x1="1196" x2="1196" y1="368" y2="430"/>
  <line class="Flusso_718" marker-end="url(#triangle)" stroke="rgb(0,0,0)" stroke-width="3" x1="519" x2="519" y1="372" y2="220"/>
  <line class="Flusso_714" stroke="rgb(0,0,0)" stroke-width="3" x1="380" x2="2507" y1="380" y2="380"/>
  <g display="none" id="Flusso_714">
    <rect fill="white" height="30" stroke="steelblue" stroke-width="2" width="80" x="1403" y="365"/>
    <text dominant-baseline="middle" font-size="10" font-weight="bold" text-anchor="middle" x="1443" y="380">FLUSSO_714</text>
  </g>
  <line class="Flusso_714" stroke="rgb(0,0,0)" stroke-width="3" x1="2505" x2="2505" y1="220" y2="382"/>
  <line class="Flusso_714" marker-end="url(#triangle)" stroke="rgb(0,0,0)" stroke-width="3" x1="382" x2="382" y1="378" y2="430"/>
  <line class="Flusso_724" stroke="rgb(0,0,0)" stroke-width="3" x1="731" x2="1907" y1="40" y2="40"/>
  <g display="none" id="Flusso_724">
    <rect fill="white" height="30" stroke="steelblue" stroke-width="2" width="80" x="1279" y="25"/>
    <text dominant-baseline="middle" font-size="10" font-weight="bold" text-anchor="middle" x="1319" y="40">FLUSSO_724</text>
  </g>
  <line class="Flusso_724" stroke="rgb(0,0,0)" stroke-width="3" x1="1905" x2="1905" y1="38" y2="120"/>
  <line class="Flusso_724" marker-end="url(#triangle)" stroke="rgb(0,0,0)" stroke-width="3" x1="733" x2="733" y1="38" y2="120"/>
  <line class="Flusso_731" stroke="rgb(0,0,0)" stroke-width="3" x1="103" x2="598" y1="390" y2="390"/>
  <g display="none" id="Flusso_731">
    <rect fill="white" height="30" stroke="steelblue" stroke-width="2" width="80" x="310" y="375"/>
    <text dominant-baseline="middle" font-size="10" font-weight="bold" text-anchor="middle" x="350" y="390">FLUSSO_731</text>
  </g>
  <line class="Flusso_731" stroke="rgb(0,0,0)" stroke-width="3" x1="596" x2="596" y1="388" y2="430"/>
  <line class="Flusso_731" marker-end="url(#triangle)" stroke="rgb(0,0,0)" stroke-width="3" x1="105" x2="105" y1="392" y2="220"/>
  <line class="Flusso_735" stroke="rgb(0,0,0)" stroke-width="3" x1="745" x2="2121" y1="30" y2="30"/>
  <g display="none" id="Flusso_735">
    <rect fill="white" height="30" stroke="steelblue" stroke-width="2" width="80" x="1393" y="15"/>
    <text dominant-baseline="middle" font-size="10" font-weight="bold" text-anchor="middle" x="1433" y="30">FLUSSO_735</text>
  </g>
  <line class="Flusso_735" stroke="rgb(0,0,0)" stroke-width="3" x1="747" x2="747" y1="28" y2="120"/>
  <line class="Flusso_735" marker-end="url(#triangle)" stroke="rgb(0,0,0)" stroke-width="3" x1="2119" x2="2119" y1="28" y2="120"/>
  <line class="Flusso_721" stroke="rgb(0,0,0)" stroke-width="3" x1="759" x2="1598" y1="400" y2="400"/>
  <g display="none" id="Flusso_721">
    <rect fill="white" height="30" stroke="steelblue" stroke-width="2" width="80" x="1138" y="385"/>
    <text dominant-baseline="middle" font-size="10" font-weight="bold" text-anchor="middle" x="1178" y="400">FLUSSO_721</text>
  </g>
  <line class="Flusso_721" stroke="rgb(0,0,0)" stroke-width="3" x1="761" x2="761" y1="220" y2="402"/>
  <line class="Flusso_721" marker-end="url(#triangle)" stroke="rgb(0,0,0)" stroke-width="3" x1="1596" x2="1596" y1="398" y2="430"/>
  <use xlink:href="#Flusso_730"/>
  <use xlink:href="#Flusso_734"/>
  <use xlink:href="#Flusso_716"/>
  <use xlink:href="#Flusso_711"/>
  <use xlink:href="#Flusso_723"/>
  <use xlink:href="#Flusso_720"/>
  <use xlink:href="#Flusso_726"/>
  <use xlink:href="#Flusso_717"/>
  <use xlink:href="#Flusso_737"/>
  <use xlink:href="#Flusso_713"/>
  <use xlink:href="#Flusso_732"/>
  <use xlink:href="#Flusso_736"/>
  <use xlink:href="#Flusso_729"/>
  <use xlink:href="#Flusso_728"/>
  <use xlink:href="#Flusso_712"/>
  <use xlink:href="#Flusso_725"/>
  <use xlink:href="#Flusso_719"/>
  <use xlink:href="#Flusso_722"/>
  <use xlink:href="#Flusso_733"/>
  <use xlink:href="#Flusso_715"/>
  <use xlink:href="#Flusso_727"/>
  <use xlink:href="#Flusso_718"/>
  <use xlink:href="#Flusso_714"/>
  <use xlink:href="#Flusso_724"/>
  <use xlink:href="#Flusso_731"/>
  <use xlink:href="#Flusso_735"/>
  <use xlink:href="#Flusso_721"/>
  <script type="text/javascript">
var lines = ["Flusso_730", "Flusso_734", "Flusso_716", "Flusso_711", "Flusso_723", "Flusso_720", "Flusso_726", "Flusso_717", "Flusso_737", "Flusso_713", "Flusso_732", "Flusso_736", "Flusso_729", "Flusso_728", "Flusso_712", "Flusso_725", "Flusso_719", "Flusso_722", "Flusso_733", "Flusso_715", "Flusso_727", "Flusso_718", "Flusso_714", "Flusso_724", "Flusso_731", "Flusso_735", "Flusso_721"];
var devices = [["p2227b", "ul110"], ["s2226b", "p2227b"], ["s2226b", "p5346b"], ["p5346a", "r-5317exit"], ["s2226b", "p5338b"], ["mx2234", "e-2228"], ["ul110", "mx2234"], ["p5338a", "mx-5371exit"], ["xv2230b-4", "s-2230b"], ["s2226b", "p5346a"], ["s-2230b", "xtexit2"], ["s2226b", "exit"], ["s-2230a", "exit1"], ["e-2228", "xv2230a-4"], ["p5346b", "r-5317exit"], ["p2227a", "s2226b"], ["xv2228", "e-2228"], ["xtcwstart", "xv2228"], ["e-2228", "xv2230b-4"], ["e-2228", "cwrexit"], ["ul111", "mx2234"], ["p5338b", "mx-5371exit"], ["p-1504start", "ul111"], ["p-5102a-bstart", "s2226b"], ["xv2230a-4", "s-2230a"], ["s2226b", "p2227a"], ["s2226b", "p5338a"]];
var elementLines = [];
var elementDevices = [];
var n = [];
var nD = [];
function highlight(className, value, display) {
    document.getElementById(className.baseVal).setAttribute("display", display);
    for(var i = 0; i &lt;  n[className.baseVal]; i ++) {
        elementLines[className.baseVal][i].setAttribute("stroke-width", value);
    }
    for(var i = 0; i &lt; nD[className.baseVal]; i++) {
        elementDevices[className.baseVal][i].setAttribute("stroke-width", value);
    }
}
for(var i = 0; i &lt; lines.length; i++) {
    var currentClass = lines[i];
    elementLines[currentClass] = document.getElementsByClassName(currentClass);
    n[currentClass] = elementLines[currentClass].length;
    nD[currentClass] = devices[i].length;
    elementDevices[currentClass] = [];
    for(var j = 0; j &lt; nD[currentClass]; j++) {
        elementDevices[currentClass][j] = document.getElementById(devices[i][j]);
    }
    for(var k = 0; k &lt; n[currentClass]; k++) {
        elementLines[currentClass][k].onmouseover = function() {
            highlight(this.className, "7", "block");
        };
        elementLines[currentClass][k].onmouseout = function() {
            highlight(this.className, "3", "none");
        };
    }
};</script>
</svg>
