<?xml version="1.0" encoding="UTF-8" standalone="no"?>
<svg xmlns="http://www.w3.org/2000/svg" xmlns:xlink="http://www.w3.org/1999/xlink" height="100%" viewBox="0 0 3400 670" width="100%">
  <marker fill="rgb(255,60,60)" id="triangle" markerHeight="4" markerWidth="4" orient="auto" refX="7" refY="5" viewBox="0 0 10 10">
    <path d="M 0 0 L 10 5 L 0 10 z"/>
  </marker>
  <rect fill="aliceblue" height="100" id="R-4003.txtxv4235" stroke="skyblue" stroke-width="3" width="150" x="1700" y="140"/>
  <text dominant-baseline="middle" font-weight="bold" text-anchor="middle" x="1775" y="190">R-4003.TXTXV4235</text>
  <rect fill="aliceblue" height="100" id="R-4003.txtazotostart" stroke="skyblue" stroke-width="3" width="150" x="1777" y="440"/>
  <text dominant-baseline="middle" font-weight="bold" text-anchor="middle" x="1852" y="490">R-4003.TXTAZOTOSTART</text>
  <rect fill="aliceblue" height="100" id="e-4506" stroke="skyblue" stroke-width="3" width="150" x="700" y="140"/>
  <text dominant-baseline="middle" font-weight="bold" text-anchor="middle" x="775" y="190">E-4506</text>
  <rect fill="aliceblue" height="100" id="R-4003.txtxv4236" stroke="skyblue" stroke-width="3" width="150" x="2300" y="140"/>
  <text dominant-baseline="middle" font-weight="bold" text-anchor="middle" x="2375" y="190">R-4003.TXTXV4236</text>
  <rect fill="aliceblue" height="100" id="xv4313" stroke="skyblue" stroke-width="3" width="150" x="2377" y="440"/>
  <text dominant-baseline="middle" font-weight="bold" text-anchor="middle" x="2452" y="490">XV4313</text>
  <rect fill="aliceblue" height="100" id="R-4003.txtdegasamentoiposodioexit" stroke="skyblue" stroke-width="3" width="150" x="3177" y="440"/>
  <text dominant-baseline="middle" font-weight="bold" text-anchor="middle" x="3252" y="490">R-4003.TXTDEGASAMENTOIPOSODIOEXIT</text>
  <rect fill="aliceblue" height="100" id="s4304-exit" stroke="skyblue" stroke-width="3" width="150" x="1900" y="140"/>
  <text dominant-baseline="middle" font-weight="bold" text-anchor="middle" x="1975" y="190">S4304-EXIT</text>
  <rect fill="aliceblue" height="100" id="R-4003.txtabbacidoexit" stroke="skyblue" stroke-width="3" width="150" x="1377" y="440"/>
  <text dominant-baseline="middle" font-weight="bold" text-anchor="middle" x="1452" y="490">R-4003.TXTABBACIDOEXIT</text>
  <rect fill="aliceblue" height="100" id="p-4606b" stroke="skyblue" stroke-width="3" width="150" x="900" y="140"/>
  <text dominant-baseline="middle" font-weight="bold" text-anchor="middle" x="975" y="190">P-4606B</text>
  <rect fill="aliceblue" height="100" id="R-4003.txts-4301start" stroke="skyblue" stroke-width="3" width="150" x="2100" y="140"/>
  <text dominant-baseline="middle" font-weight="bold" text-anchor="middle" x="2175" y="190">R-4003.TXTS-4301START</text>
  <rect fill="aliceblue" height="100" id="ul140" stroke="skyblue" stroke-width="3" width="150" x="500" y="140"/>
  <text dominant-baseline="middle" font-weight="bold" text-anchor="middle" x="575" y="190">UL140</text>
  <rect fill="aliceblue" height="100" id="ul141" stroke="skyblue" stroke-width="3" width="150" x="1100" y="140"/>
  <text dominant-baseline="middle" font-weight="bold" text-anchor="middle" x="1175" y="190">UL141</text>
  <rect fill="aliceblue" height="100" id="ul144" stroke="skyblue" stroke-width="3" width="150" x="1977" y="440"/>
  <text dominant-baseline="middle" font-weight="bold" text-anchor="middle" x="2052" y="490">UL144</text>
  <rect fill="aliceblue" height="100" id="xv4506" stroke="skyblue" stroke-width="3" width="150" x="1500" y="140"/>
  <text dominant-baseline="middle" font-weight="bold" text-anchor="middle" x="1575" y="190">XV4506</text>
  <rect fill="aliceblue" height="100" id="ul145" stroke="skyblue" stroke-width="3" width="150" x="2177" y="440"/>
  <text dominant-baseline="middle" font-weight="bold" text-anchor="middle" x="2252" y="490">UL145</text>
  <rect fill="aliceblue" height="100" id="ul142" stroke="skyblue" stroke-width="3" width="150" x="2500" y="140"/>
  <text dominant-baseline="middle" font-weight="bold" text-anchor="middle" x="2575" y="190">UL142</text>
  <rect fill="aliceblue" height="100" id="xv4321b" stroke="skyblue" stroke-width="3" width="150" x="2577" y="440"/>
  <text dominant-baseline="middle" font-weight="bold" text-anchor="middle" x="2652" y="490">XV4321B</text>
  <rect fill="aliceblue" height="100" id="ul143" stroke="skyblue" stroke-width="3" width="150" x="177" y="440"/>
  <text dominant-baseline="middle" font-weight="bold" text-anchor="middle" x="252" y="490">UL143</text>
  <rect fill="aliceblue" height="100" id="R-4003.txts-4302start" stroke="skyblue" stroke-width="3" width="150" x="1177" y="440"/>
  <text dominant-baseline="middle" font-weight="bold" text-anchor="middle" x="1252" y="490">R-4003.TXTS-4302START</text>
  <rect fill="aliceblue" height="100" id="xv4301a" stroke="skyblue" stroke-width="3" width="150" x="2700" y="140"/>
  <text dominant-baseline="middle" font-weight="bold" text-anchor="middle" x="2775" y="190">XV4301A</text>
  <rect fill="aliceblue" height="100" id="r-4003" stroke="skyblue" stroke-width="3" width="150" x="777" y="440"/>
  <text dominant-baseline="middle" font-weight="bold" text-anchor="middle" x="852" y="490">R-4003</text>
  <rect fill="aliceblue" height="100" id="R-4003.txth2otorrestart" stroke="skyblue" stroke-width="3" width="150" x="2977" y="440"/>
  <text dominant-baseline="middle" font-weight="bold" text-anchor="middle" x="3052" y="490">R-4003.TXTH2OTORRESTART</text>
  <rect fill="aliceblue" height="100" id="R-4003.txth2otorreexit" stroke="skyblue" stroke-width="3" width="150" x="2900" y="140"/>
  <text dominant-baseline="middle" font-weight="bold" text-anchor="middle" x="2975" y="190">R-4003.TXTH2OTORREEXIT</text>
  <rect fill="aliceblue" height="100" id="R-4003.txtclorostart" stroke="skyblue" stroke-width="3" width="150" x="377" y="440"/>
  <text dominant-baseline="middle" font-weight="bold" text-anchor="middle" x="452" y="490">R-4003.TXTCLOROSTART</text>
  <rect fill="aliceblue" height="100" id="s4305-exit" stroke="skyblue" stroke-width="3" width="150" x="100" y="140"/>
  <text dominant-baseline="middle" font-weight="bold" text-anchor="middle" x="175" y="190">S4305-EXIT</text>
  <rect fill="aliceblue" height="100" id="h20caldaexit" stroke="skyblue" stroke-width="3" width="150" x="3100" y="140"/>
  <text dominant-baseline="middle" font-weight="bold" text-anchor="middle" x="3175" y="190">H20CALDAEXIT</text>
  <rect fill="aliceblue" height="100" id="R-4003.txth2ocaldastart" stroke="skyblue" stroke-width="3" width="150" x="577" y="440"/>
  <text dominant-baseline="middle" font-weight="bold" text-anchor="middle" x="652" y="490">R-4003.TXTH2OCALDASTART</text>
  <rect fill="aliceblue" height="100" id="gasdisingaggio-exit" stroke="skyblue" stroke-width="3" width="150" x="977" y="440"/>
  <text dominant-baseline="middle" font-weight="bold" text-anchor="middle" x="1052" y="490">GASDISINGAGGIO-EXIT</text>
  <rect fill="aliceblue" height="100" id="xv4207c" stroke="skyblue" stroke-width="3" width="150" x="2777" y="440"/>
  <text dominant-baseline="middle" font-weight="bold" text-anchor="middle" x="2852" y="490">XV4207C</text>
  <rect fill="aliceblue" height="100" id="xv4245c" stroke="skyblue" stroke-width="3" width="150" x="300" y="140"/>
  <text dominant-baseline="middle" font-weight="bold" text-anchor="middle" x="375" y="190">XV4245C</text>
  <rect fill="aliceblue" height="100" id="xv4003d" stroke="skyblue" stroke-width="3" width="150" x="1300" y="140"/>
  <text dominant-baseline="middle" font-weight="bold" text-anchor="middle" x="1375" y="190">XV4003D</text>
  <rect fill="aliceblue" height="100" id="R-4003.txtp-4606start" stroke="skyblue" stroke-width="3" width="150" x="1577" y="440"/>
  <text dominant-baseline="middle" font-weight="bold" text-anchor="middle" x="1652" y="490">R-4003.TXTP-4606START</text>
  <line class="Flusso_768" stroke="rgb(0,0,0)" stroke-width="3" x1="503" x2="1107" y1="120" y2="120"/>
  <g display="none" id="Flusso_768">
    <rect fill="white" height="30" stroke="steelblue" stroke-width="2" width="80" x="765" y="105"/>
    <text dominant-baseline="middle" font-size="10" font-weight="bold" text-anchor="middle" x="805" y="120">FLUSSO_768</text>
  </g>
  <line class="Flusso_768" stroke="rgb(0,0,0)" stroke-width="3" x1="505" x2="505" y1="118" y2="140"/>
  <line class="Flusso_768" marker-end="url(#triangle)" stroke="rgb(0,0,0)" stroke-width="3" x1="1105" x2="1105" y1="118" y2="140"/>
  <line class="Flusso_741" stroke="rgb(0,0,0)" stroke-width="3" x1="780" x2="2707" y1="270" y2="270"/>
  <g display="none" id="Flusso_741">
    <rect fill="white" height="30" stroke="steelblue" stroke-width="2" width="80" x="1703" y="255"/>
    <text dominant-baseline="middle" font-size="10" font-weight="bold" text-anchor="middle" x="1743" y="270">FLUSSO_741</text>
  </g>
  <line class="Flusso_741" stroke="rgb(0,0,0)" stroke-width="3" x1="782" x2="782" y1="268" y2="440"/>
  <line class="Flusso_741" marker-end="url(#triangle)" stroke="rgb(0,0,0)" stroke-width="3" x1="2705" x2="2705" y1="272" y2="240"/>
  <line class="Flusso_758" stroke="rgb(0,0,0)" stroke-width="3" x1="1980" x2="2784" y1="560" y2="560"/>
  <g display="none" id="Flusso_758">
    <rect fill="white" height="30" stroke="steelblue" stroke-width="2" width="80" x="2342" y="545"/>
    <text dominant-baseline="middle" font-size="10" font-weight="bold" text-anchor="middle" x="2382" y="560">FLUSSO_758</text>
  </g>
  <line class="Flusso_758" stroke="rgb(0,0,0)" stroke-width="3" x1="1982" x2="1982" y1="562" y2="540"/>
  <line class="Flusso_758" marker-end="url(#triangle)" stroke="rgb(0,0,0)" stroke-width="3" x1="2782" x2="2782" y1="562" y2="540"/>
  <line class="Flusso_765" stroke="rgb(0,0,0)" stroke-width="3" x1="303" x2="2784" y1="280" y2="280"/>
  <g display="none" id="Flusso_765">
    <rect fill="white" height="30" stroke="steelblue" stroke-width="2" width="80" x="1503" y="265"/>
    <text dominant-baseline="middle" font-size="10" font-weight="bold" text-anchor="middle" x="1543" y="280">FLUSSO_765</text>
  </g>
  <line class="Flusso_765" stroke="rgb(0,0,0)" stroke-width="3" x1="2782" x2="2782" y1="278" y2="440"/>
  <line class="Flusso_765" marker-end="url(#triangle)" stroke="rgb(0,0,0)" stroke-width="3" x1="305" x2="305" y1="282" y2="240"/>
  <line class="Flusso_747" stroke="rgb(0,0,0)" stroke-width="3" x1="780" x2="1184" y1="570" y2="570"/>
  <g display="none" id="Flusso_747">
    <rect fill="white" height="30" stroke="steelblue" stroke-width="2" width="80" x="942" y="555"/>
    <text dominant-baseline="middle" font-size="10" font-weight="bold" text-anchor="middle" x="982" y="570">FLUSSO_747</text>
  </g>
  <line class="Flusso_747" stroke="rgb(0,0,0)" stroke-width="3" x1="1182" x2="1182" y1="572" y2="540"/>
  <line class="Flusso_747" marker-end="url(#triangle)" stroke="rgb(0,0,0)" stroke-width="3" x1="782" x2="782" y1="572" y2="540"/>
  <line class="Flusso_744" stroke="rgb(0,0,0)" stroke-width="3" x1="903" x2="2507" y1="110" y2="110"/>
  <g display="none" id="Flusso_744">
    <rect fill="white" height="30" stroke="steelblue" stroke-width="2" width="80" x="1665" y="95"/>
    <text dominant-baseline="middle" font-size="10" font-weight="bold" text-anchor="middle" x="1705" y="110">FLUSSO_744</text>
  </g>
  <line class="Flusso_744" stroke="rgb(0,0,0)" stroke-width="3" x1="905" x2="905" y1="108" y2="140"/>
  <line class="Flusso_744" marker-end="url(#triangle)" stroke="rgb(0,0,0)" stroke-width="3" x1="2505" x2="2505" y1="108" y2="140"/>
  <line class="Flusso_756" stroke="rgb(0,0,0)" stroke-width="3" x1="703" x2="1507" y1="100" y2="100"/>
  <g display="none" id="Flusso_756">
    <rect fill="white" height="30" stroke="steelblue" stroke-width="2" width="80" x="1065" y="85"/>
    <text dominant-baseline="middle" font-size="10" font-weight="bold" text-anchor="middle" x="1105" y="100">FLUSSO_756</text>
  </g>
  <line class="Flusso_756" stroke="rgb(0,0,0)" stroke-width="3" x1="1505" x2="1505" y1="98" y2="140"/>
  <line class="Flusso_756" marker-end="url(#triangle)" stroke="rgb(0,0,0)" stroke-width="3" x1="705" x2="705" y1="98" y2="140"/>
  <line class="Flusso_771" stroke="rgb(0,0,0)" stroke-width="3" x1="1903" x2="2307" y1="90" y2="90"/>
  <g display="none" id="Flusso_771">
    <rect fill="white" height="30" stroke="steelblue" stroke-width="2" width="80" x="2065" y="75"/>
    <text dominant-baseline="middle" font-size="10" font-weight="bold" text-anchor="middle" x="2105" y="90">FLUSSO_771</text>
  </g>
  <line class="Flusso_771" stroke="rgb(0,0,0)" stroke-width="3" x1="2305" x2="2305" y1="88" y2="140"/>
  <line class="Flusso_771" marker-end="url(#triangle)" stroke="rgb(0,0,0)" stroke-width="3" x1="1905" x2="1905" y1="88" y2="140"/>
  <line class="Flusso_762" stroke="rgb(0,0,0)" stroke-width="3" x1="917" x2="1707" y1="80" y2="80"/>
  <g display="none" id="Flusso_762">
    <rect fill="white" height="30" stroke="steelblue" stroke-width="2" width="80" x="1272" y="65"/>
    <text dominant-baseline="middle" font-size="10" font-weight="bold" text-anchor="middle" x="1312" y="80">FLUSSO_762</text>
  </g>
  <line class="Flusso_762" stroke="rgb(0,0,0)" stroke-width="3" x1="919" x2="919" y1="78" y2="140"/>
  <line class="Flusso_762" marker-end="url(#triangle)" stroke="rgb(0,0,0)" stroke-width="3" x1="1705" x2="1705" y1="78" y2="140"/>
  <line class="Flusso_751" stroke="rgb(0,0,0)" stroke-width="3" x1="794" x2="2184" y1="580" y2="580"/>
  <g display="none" id="Flusso_751">
    <rect fill="white" height="30" stroke="steelblue" stroke-width="2" width="80" x="1449" y="565"/>
    <text dominant-baseline="middle" font-size="10" font-weight="bold" text-anchor="middle" x="1489" y="580">FLUSSO_751</text>
  </g>
  <line class="Flusso_751" stroke="rgb(0,0,0)" stroke-width="3" x1="2182" x2="2182" y1="582" y2="540"/>
  <line class="Flusso_751" marker-end="url(#triangle)" stroke="rgb(0,0,0)" stroke-width="3" x1="796" x2="796" y1="582" y2="540"/>
  <line class="Flusso_767" stroke="rgb(0,0,0)" stroke-width="3" x1="931" x2="2321" y1="70" y2="70"/>
  <g display="none" id="Flusso_767">
    <rect fill="white" height="30" stroke="steelblue" stroke-width="2" width="80" x="1586" y="55"/>
    <text dominant-baseline="middle" font-size="10" font-weight="bold" text-anchor="middle" x="1626" y="70">FLUSSO_767</text>
  </g>
  <line class="Flusso_767" stroke="rgb(0,0,0)" stroke-width="3" x1="933" x2="933" y1="68" y2="140"/>
  <line class="Flusso_767" marker-end="url(#triangle)" stroke="rgb(0,0,0)" stroke-width="3" x1="2319" x2="2319" y1="68" y2="140"/>
  <line class="Flusso_749" stroke="rgb(0,0,0)" stroke-width="3" x1="794" x2="2507" y1="290" y2="290"/>
  <g display="none" id="Flusso_749">
    <rect fill="white" height="30" stroke="steelblue" stroke-width="2" width="80" x="1610" y="275"/>
    <text dominant-baseline="middle" font-size="10" font-weight="bold" text-anchor="middle" x="1650" y="290">FLUSSO_749</text>
  </g>
  <line class="Flusso_749" stroke="rgb(0,0,0)" stroke-width="3" x1="2505" x2="2505" y1="240" y2="292"/>
  <line class="Flusso_749" marker-end="url(#triangle)" stroke="rgb(0,0,0)" stroke-width="3" x1="796" x2="796" y1="288" y2="440"/>
  <line class="Flusso_770" stroke="rgb(0,0,0)" stroke-width="3" x1="503" x2="1784" y1="300" y2="300"/>
  <g display="none" id="Flusso_770">
    <rect fill="white" height="30" stroke="steelblue" stroke-width="2" width="80" x="1103" y="285"/>
    <text dominant-baseline="middle" font-size="10" font-weight="bold" text-anchor="middle" x="1143" y="300">FLUSSO_770</text>
  </g>
  <line class="Flusso_770" stroke="rgb(0,0,0)" stroke-width="3" x1="1782" x2="1782" y1="298" y2="440"/>
  <line class="Flusso_770" marker-end="url(#triangle)" stroke="rgb(0,0,0)" stroke-width="3" x1="505" x2="505" y1="302" y2="240"/>
  <line class="Flusso_750" stroke="rgb(0,0,0)" stroke-width="3" x1="180" x2="812" y1="590" y2="590"/>
  <g display="none" id="Flusso_750">
    <rect fill="white" height="30" stroke="steelblue" stroke-width="2" width="80" x="456" y="575"/>
    <text dominant-baseline="middle" font-size="10" font-weight="bold" text-anchor="middle" x="496" y="590">FLUSSO_750</text>
  </g>
  <line class="Flusso_750" stroke="rgb(0,0,0)" stroke-width="3" x1="182" x2="182" y1="592" y2="540"/>
  <line class="Flusso_750" marker-end="url(#triangle)" stroke="rgb(0,0,0)" stroke-width="3" x1="810" x2="810" y1="592" y2="540"/>
  <line class="Flusso_764" stroke="rgb(0,0,0)" stroke-width="3" x1="317" x2="812" y1="310" y2="310"/>
  <g display="none" id="Flusso_764">
    <rect fill="white" height="30" stroke="steelblue" stroke-width="2" width="80" x="524" y="295"/>
    <text dominant-baseline="middle" font-size="10" font-weight="bold" text-anchor="middle" x="564" y="310">FLUSSO_764</text>
  </g>
  <line class="Flusso_764" stroke="rgb(0,0,0)" stroke-width="3" x1="810" x2="810" y1="308" y2="440"/>
  <line class="Flusso_764" marker-end="url(#triangle)" stroke="rgb(0,0,0)" stroke-width="3" x1="319" x2="319" y1="312" y2="240"/>
  <line class="Flusso_746" stroke="rgb(0,0,0)" stroke-width="3" x1="822" x2="2107" y1="320" y2="320"/>
  <g display="none" id="Flusso_746">
    <rect fill="white" height="30" stroke="steelblue" stroke-width="2" width="80" x="1424" y="305"/>
    <text dominant-baseline="middle" font-size="10" font-weight="bold" text-anchor="middle" x="1464" y="320">FLUSSO_746</text>
  </g>
  <line class="Flusso_746" stroke="rgb(0,0,0)" stroke-width="3" x1="2105" x2="2105" y1="240" y2="322"/>
  <line class="Flusso_746" marker-end="url(#triangle)" stroke="rgb(0,0,0)" stroke-width="3" x1="824" x2="824" y1="318" y2="440"/>
  <line class="Flusso_743" stroke="rgb(0,0,0)" stroke-width="3" x1="180" x2="707" y1="330" y2="330"/>
  <g display="none" id="Flusso_743">
    <rect fill="white" height="30" stroke="steelblue" stroke-width="2" width="80" x="403" y="315"/>
    <text dominant-baseline="middle" font-size="10" font-weight="bold" text-anchor="middle" x="443" y="330">FLUSSO_743</text>
  </g>
  <line class="Flusso_743" stroke="rgb(0,0,0)" stroke-width="3" x1="705" x2="705" y1="240" y2="332"/>
  <line class="Flusso_743" marker-end="url(#triangle)" stroke="rgb(0,0,0)" stroke-width="3" x1="182" x2="182" y1="328" y2="440"/>
  <line class="Flusso_753" stroke="rgb(0,0,0)" stroke-width="3" x1="1503" x2="2984" y1="340" y2="340"/>
  <g display="none" id="Flusso_753">
    <rect fill="white" height="30" stroke="steelblue" stroke-width="2" width="80" x="2203" y="325"/>
    <text dominant-baseline="middle" font-size="10" font-weight="bold" text-anchor="middle" x="2243" y="340">FLUSSO_753</text>
  </g>
  <line class="Flusso_753" stroke="rgb(0,0,0)" stroke-width="3" x1="2982" x2="2982" y1="338" y2="440"/>
  <line class="Flusso_753" marker-end="url(#triangle)" stroke="rgb(0,0,0)" stroke-width="3" x1="1505" x2="1505" y1="342" y2="240"/>
  <line class="Flusso_761" stroke="rgb(0,0,0)" stroke-width="3" x1="903" x2="2584" y1="350" y2="350"/>
  <g display="none" id="Flusso_761">
    <rect fill="white" height="30" stroke="steelblue" stroke-width="2" width="80" x="1703" y="335"/>
    <text dominant-baseline="middle" font-size="10" font-weight="bold" text-anchor="middle" x="1743" y="350">FLUSSO_761</text>
  </g>
  <line class="Flusso_761" stroke="rgb(0,0,0)" stroke-width="3" x1="2582" x2="2582" y1="348" y2="440"/>
  <line class="Flusso_761" marker-end="url(#triangle)" stroke="rgb(0,0,0)" stroke-width="3" x1="905" x2="905" y1="352" y2="240"/>
  <line class="Flusso_739" stroke="rgb(0,0,0)" stroke-width="3" x1="980" x2="1307" y1="360" y2="360"/>
  <g display="none" id="Flusso_739">
    <rect fill="white" height="30" stroke="steelblue" stroke-width="2" width="80" x="1103" y="345"/>
    <text dominant-baseline="middle" font-size="10" font-weight="bold" text-anchor="middle" x="1143" y="360">FLUSSO_739</text>
  </g>
  <line class="Flusso_739" stroke="rgb(0,0,0)" stroke-width="3" x1="1305" x2="1305" y1="240" y2="362"/>
  <line class="Flusso_739" marker-end="url(#triangle)" stroke="rgb(0,0,0)" stroke-width="3" x1="982" x2="982" y1="358" y2="440"/>
  <line class="Flusso_760" stroke="rgb(0,0,0)" stroke-width="3" x1="822" x2="2584" y1="600" y2="600"/>
  <g display="none" id="Flusso_760">
    <rect fill="white" height="30" stroke="steelblue" stroke-width="2" width="80" x="1663" y="585"/>
    <text dominant-baseline="middle" font-size="10" font-weight="bold" text-anchor="middle" x="1703" y="600">FLUSSO_760</text>
  </g>
  <line class="Flusso_760" stroke="rgb(0,0,0)" stroke-width="3" x1="824" x2="824" y1="602" y2="540"/>
  <line class="Flusso_760" marker-end="url(#triangle)" stroke="rgb(0,0,0)" stroke-width="3" x1="2582" x2="2582" y1="602" y2="540"/>
  <line class="Flusso_740" stroke="rgb(0,0,0)" stroke-width="3" x1="1380" x2="2721" y1="370" y2="370"/>
  <g display="none" id="Flusso_740">
    <rect fill="white" height="30" stroke="steelblue" stroke-width="2" width="80" x="2010" y="355"/>
    <text dominant-baseline="middle" font-size="10" font-weight="bold" text-anchor="middle" x="2050" y="370">FLUSSO_740</text>
  </g>
  <line class="Flusso_740" stroke="rgb(0,0,0)" stroke-width="3" x1="2719" x2="2719" y1="240" y2="372"/>
  <line class="Flusso_740" marker-end="url(#triangle)" stroke="rgb(0,0,0)" stroke-width="3" x1="1382" x2="1382" y1="368" y2="440"/>
  <line class="Flusso_757" stroke="rgb(0,0,0)" stroke-width="3" x1="717" x2="2907" y1="60" y2="60"/>
  <g display="none" id="Flusso_757">
    <rect fill="white" height="30" stroke="steelblue" stroke-width="2" width="80" x="1772" y="45"/>
    <text dominant-baseline="middle" font-size="10" font-weight="bold" text-anchor="middle" x="1812" y="60">FLUSSO_757</text>
  </g>
  <line class="Flusso_757" stroke="rgb(0,0,0)" stroke-width="3" x1="719" x2="719" y1="58" y2="140"/>
  <line class="Flusso_757" marker-end="url(#triangle)" stroke="rgb(0,0,0)" stroke-width="3" x1="2905" x2="2905" y1="58" y2="140"/>
  <line class="Flusso_752" stroke="rgb(0,0,0)" stroke-width="3" x1="836" x2="2384" y1="610" y2="610"/>
  <g display="none" id="Flusso_752">
    <rect fill="white" height="30" stroke="steelblue" stroke-width="2" width="80" x="1570" y="595"/>
    <text dominant-baseline="middle" font-size="10" font-weight="bold" text-anchor="middle" x="1610" y="610">FLUSSO_752</text>
  </g>
  <line class="Flusso_752" stroke="rgb(0,0,0)" stroke-width="3" x1="2382" x2="2382" y1="612" y2="540"/>
  <line class="Flusso_752" marker-end="url(#triangle)" stroke="rgb(0,0,0)" stroke-width="3" x1="838" x2="838" y1="612" y2="540"/>
  <line class="Flusso_738" stroke="rgb(0,0,0)" stroke-width="3" x1="836" x2="1321" y1="380" y2="380"/>
  <g display="none" id="Flusso_738">
    <rect fill="white" height="30" stroke="steelblue" stroke-width="2" width="80" x="1038" y="365"/>
    <text dominant-baseline="middle" font-size="10" font-weight="bold" text-anchor="middle" x="1078" y="380">FLUSSO_738</text>
  </g>
  <line class="Flusso_738" stroke="rgb(0,0,0)" stroke-width="3" x1="838" x2="838" y1="378" y2="440"/>
  <line class="Flusso_738" marker-end="url(#triangle)" stroke="rgb(0,0,0)" stroke-width="3" x1="1319" x2="1319" y1="382" y2="240"/>
  <line class="Flusso_763" stroke="rgb(0,0,0)" stroke-width="3" x1="103" x2="1721" y1="50" y2="50"/>
  <g display="none" id="Flusso_763">
    <rect fill="white" height="30" stroke="steelblue" stroke-width="2" width="80" x="872" y="35"/>
    <text dominant-baseline="middle" font-size="10" font-weight="bold" text-anchor="middle" x="912" y="50">FLUSSO_763</text>
  </g>
  <line class="Flusso_763" stroke="rgb(0,0,0)" stroke-width="3" x1="1719" x2="1719" y1="48" y2="140"/>
  <line class="Flusso_763" marker-end="url(#triangle)" stroke="rgb(0,0,0)" stroke-width="3" x1="105" x2="105" y1="48" y2="140"/>
  <line class="Flusso_745" stroke="rgb(0,0,0)" stroke-width="3" x1="850" x2="3107" y1="390" y2="390"/>
  <g display="none" id="Flusso_745">
    <rect fill="white" height="30" stroke="steelblue" stroke-width="2" width="80" x="1938" y="375"/>
    <text dominant-baseline="middle" font-size="10" font-weight="bold" text-anchor="middle" x="1978" y="390">FLUSSO_745</text>
  </g>
  <line class="Flusso_745" stroke="rgb(0,0,0)" stroke-width="3" x1="852" x2="852" y1="388" y2="440"/>
  <line class="Flusso_745" marker-end="url(#triangle)" stroke="rgb(0,0,0)" stroke-width="3" x1="3105" x2="3105" y1="392" y2="240"/>
  <line class="Flusso_769" stroke="rgb(0,0,0)" stroke-width="3" x1="331" x2="3184" y1="400" y2="400"/>
  <g display="none" id="Flusso_769">
    <rect fill="white" height="30" stroke="steelblue" stroke-width="2" width="80" x="1717" y="385"/>
    <text dominant-baseline="middle" font-size="10" font-weight="bold" text-anchor="middle" x="1757" y="400">FLUSSO_769</text>
  </g>
  <line class="Flusso_769" stroke="rgb(0,0,0)" stroke-width="3" x1="333" x2="333" y1="240" y2="402"/>
  <line class="Flusso_769" marker-end="url(#triangle)" stroke="rgb(0,0,0)" stroke-width="3" x1="3182" x2="3182" y1="398" y2="440"/>
  <line class="Flusso_742" stroke="rgb(0,0,0)" stroke-width="3" x1="917" x2="2184" y1="410" y2="410"/>
  <g display="none" id="Flusso_742">
    <rect fill="white" height="30" stroke="steelblue" stroke-width="2" width="80" x="1510" y="395"/>
    <text dominant-baseline="middle" font-size="10" font-weight="bold" text-anchor="middle" x="1550" y="410">FLUSSO_742</text>
  </g>
  <line class="Flusso_742" stroke="rgb(0,0,0)" stroke-width="3" x1="919" x2="919" y1="240" y2="412"/>
  <line class="Flusso_742" marker-end="url(#triangle)" stroke="rgb(0,0,0)" stroke-width="3" x1="2182" x2="2182" y1="408" y2="440"/>
  <line class="Flusso_766" stroke="rgb(0,0,0)" stroke-width="3" x1="303" x2="1121" y1="40" y2="40"/>
  <g display="none" id="Flusso_766">
    <rect fill="white" height="30" stroke="steelblue" stroke-width="2" width="80" x="672" y="25"/>
    <text dominant-baseline="middle" font-size="10" font-weight="bold" text-anchor="middle" x="712" y="40">FLUSSO_766</text>
  </g>
  <line class="Flusso_766" stroke="rgb(0,0,0)" stroke-width="3" x1="1119" x2="1119" y1="38" y2="140"/>
  <line class="Flusso_766" marker-end="url(#triangle)" stroke="rgb(0,0,0)" stroke-width="3" x1="305" x2="305" y1="38" y2="140"/>
  <line class="Flusso_748" stroke="rgb(0,0,0)" stroke-width="3" x1="850" x2="1584" y1="620" y2="620"/>
  <g display="none" id="Flusso_748">
    <rect fill="white" height="30" stroke="steelblue" stroke-width="2" width="80" x="1177" y="605"/>
    <text dominant-baseline="middle" font-size="10" font-weight="bold" text-anchor="middle" x="1217" y="620">FLUSSO_748</text>
  </g>
  <line class="Flusso_748" stroke="rgb(0,0,0)" stroke-width="3" x1="1582" x2="1582" y1="622" y2="540"/>
  <line class="Flusso_748" marker-end="url(#triangle)" stroke="rgb(0,0,0)" stroke-width="3" x1="852" x2="852" y1="622" y2="540"/>
  <line class="Flusso_755" stroke="rgb(0,0,0)" stroke-width="3" x1="731" x2="949" y1="30" y2="30"/>
  <g display="none" id="Flusso_755">
    <rect fill="white" height="30" stroke="steelblue" stroke-width="2" width="80" x="800" y="15"/>
    <text dominant-baseline="middle" font-size="10" font-weight="bold" text-anchor="middle" x="840" y="30">FLUSSO_755</text>
  </g>
  <line class="Flusso_755" stroke="rgb(0,0,0)" stroke-width="3" x1="947" x2="947" y1="28" y2="140"/>
  <line class="Flusso_755" marker-end="url(#triangle)" stroke="rgb(0,0,0)" stroke-width="3" x1="733" x2="733" y1="28" y2="140"/>
  <line class="Flusso_754" stroke="rgb(0,0,0)" stroke-width="3" x1="580" x2="2398" y1="630" y2="630"/>
  <g display="none" id="Flusso_754">
    <rect fill="white" height="30" stroke="steelblue" stroke-width="2" width="80" x="1449" y="615"/>
    <text dominant-baseline="middle" font-size="10" font-weight="bold" text-anchor="middle" x="1489" y="630">FLUSSO_754</text>
  </g>
  <line class="Flusso_754" stroke="rgb(0,0,0)" stroke-width="3" x1="582" x2="582" y1="632" y2="540"/>
  <line class="Flusso_754" marker-end="url(#triangle)" stroke="rgb(0,0,0)" stroke-width="3" x1="2396" x2="2396" y1="632" y2="540"/>
  <line class="Flusso_759" stroke="rgb(0,0,0)" stroke-width="3" x1="380" x2="1998" y1="640" y2="640"/>
  <g display="none" id="Flusso_759">
    <rect fill="white" height="30" stroke="steelblue" stroke-width="2" width="80" x="1149" y="625"/>
    <text dominant-baseline="middle" font-size="10" font-weight="bold" text-anchor="middle" x="1189" y="640">FLUSSO_759</text>
  </g>
  <line class="Flusso_759" stroke="rgb(0,0,0)" stroke-width="3" x1="382" x2="382" y1="642" y2="540"/>
  <line class="Flusso_759" marker-end="url(#triangle)" stroke="rgb(0,0,0)" stroke-width="3" x1="1996" x2="1996" y1="642" y2="540"/>
  <use xlink:href="#Flusso_768"/>
  <use xlink:href="#Flusso_741"/>
  <use xlink:href="#Flusso_758"/>
  <use xlink:href="#Flusso_765"/>
  <use xlink:href="#Flusso_747"/>
  <use xlink:href="#Flusso_744"/>
  <use xlink:href="#Flusso_756"/>
  <use xlink:href="#Flusso_771"/>
  <use xlink:href="#Flusso_762"/>
  <use xlink:href="#Flusso_751"/>
  <use xlink:href="#Flusso_767"/>
  <use xlink:href="#Flusso_749"/>
  <use xlink:href="#Flusso_770"/>
  <use xlink:href="#Flusso_750"/>
  <use xlink:href="#Flusso_764"/>
  <use xlink:href="#Flusso_746"/>
  <use xlink:href="#Flusso_743"/>
  <use xlink:href="#Flusso_753"/>
  <use xlink:href="#Flusso_761"/>
  <use xlink:href="#Flusso_739"/>
  <use xlink:href="#Flusso_760"/>
  <use xlink:href="#Flusso_740"/>
  <use xlink:href="#Flusso_757"/>
  <use xlink:href="#Flusso_752"/>
  <use xlink:href="#Flusso_738"/>
  <use xlink:href="#Flusso_763"/>
  <use xlink:href="#Flusso_745"/>
  <use xlink:href="#Flusso_769"/>
  <use xlink:href="#Flusso_742"/>
  <use xlink:href="#Flusso_766"/>
  <use xlink:href="#Flusso_748"/>
  <use xlink:href="#Flusso_755"/>
  <use xlink:href="#Flusso_754"/>
  <use xlink:href="#Flusso_759"/>
  <script type="text/javascript">
var lines = ["Flusso_768", "Flusso_741", "Flusso_758", "Flusso_765", "Flusso_747", "Flusso_744", "Flusso_756", "Flusso_771", "Flusso_762", "Flusso_751", "Flusso_767", "Flusso_749", "Flusso_770", "Flusso_750", "Flusso_764", "Flusso_746", "Flusso_743", "Flusso_753", "Flusso_761", "Flusso_739", "Flusso_760", "Flusso_740", "Flusso_757", "Flusso_752", "Flusso_738", "Flusso_763", "Flusso_745", "Flusso_769", "Flusso_742", "Flusso_766", "Flusso_748", "Flusso_755", "Flusso_754", "Flusso_759"];
var devices = [["ul140", "ul141"], ["r-4003", "xv4301a"], ["ul144", "xv4207c"], ["xv4207c", "xv4245c"], ["R-4003.txts-4302start", "r-4003"], ["p-4606b", "ul142"], ["xv4506", "e-4506"], ["R-4003.txtxv4236", "s4304-exit"], ["p-4606b", "R-4003.txtxv4235"], ["ul145", "r-4003"], ["p-4606b", "R-4003.txtxv4236"], ["ul142", "r-4003"], ["R-4003.txtazotostart", "ul140"], ["ul143", "r-4003"], ["r-4003", "xv4245c"], ["R-4003.txts-4301start", "r-4003"], ["e-4506", "ul143"], ["R-4003.txth2otorrestart", "xv4506"], ["xv4321b", "p-4606b"], ["xv4003d", "gasdisingaggio-exit"], ["r-4003", "xv4321b"], ["xv4301a", "R-4003.txtabbacidoexit"], ["e-4506", "R-4003.txth2otorreexit"], ["xv4313", "r-4003"], ["r-4003", "xv4003d"], ["R-4003.txtxv4235", "s4305-exit"], ["r-4003", "h20caldaexit"], ["xv4245c", "R-4003.txtdegasamentoiposodioexit"], ["p-4606b", "ul145"], ["ul141", "xv4245c"], ["R-4003.txtp-4606start", "r-4003"], ["p-4606b", "e-4506"], ["R-4003.txth2ocaldastart", "xv4313"], ["R-4003.txtclorostart", "ul144"]];
var elementLines = [];
var elementDevices = [];
var n = [];
var nD = [];
function highlight(className, value, display) {
    document.getElementById(className.baseVal).setAttribute("display", display);
    for(var i = 0; i &lt;  n[className.baseVal]; i ++) {
        elementLines[className.baseVal][i].setAttribute("stroke-width", value);
    }
    for(var i = 0; i &lt; nD[className.baseVal]; i++) {
        elementDevices[className.baseVal][i].setAttribute("stroke-width", value);
    }
}
for(var i = 0; i &lt; lines.length; i++) {
    var currentClass = lines[i];
    elementLines[currentClass] = document.getElementsByClassName(currentClass);
    n[currentClass] = elementLines[currentClass].length;
    nD[currentClass] = devices[i].length;
    elementDevices[currentClass] = [];
    for(var j = 0; j &lt; nD[currentClass]; j++) {
        elementDevices[currentClass][j] = document.getElementById(devices[i][j]);
    }
    for(var k = 0; k &lt; n[currentClass]; k++) {
        elementLines[currentClass][k].onmouseover = function() {
            highlight(this.className, "7", "block");
        };
        elementLines[currentClass][k].onmouseout = function() {
            highlight(this.className, "3", "none");
        };
    }
};</script>
</svg>
